<?xml version="1.0" encoding="UTF-8" standalone="no"?>
<!DOCTYPE svg PUBLIC "-//W3C//DTD SVG 1.1//EN"
 "http://www.w3.org/Graphics/SVG/1.1/DTD/svg11.dtd">
<!-- Generated by graphviz version 5.0.0 (20220707.1540)
 -->
<!-- Title: dependencies Pages: 1 -->
<svg width="320pt" height="247pt"
 viewBox="0.00 0.00 320.00 246.80" xmlns="http://www.w3.org/2000/svg" xmlns:xlink="http://www.w3.org/1999/xlink">
<g id="graph0" class="graph" transform="scale(1 1) rotate(0) translate(4 242.8)">
<title>dependencies</title>
<polygon fill="white" stroke="transparent" points="-4,4 -4,-242.8 316,-242.8 316,4 -4,4"/>
<text text-anchor="middle" x="156" y="-8.2" font-family="sans-serif" font-size="14.00">dependencies</text>
<g id="clust1" class="cluster">
<title>cluster_SmsModule</title>
<polygon fill="none" stroke="black" stroke-dasharray="1,5" points="8,-32.8 8,-230.8 304,-230.8 304,-32.8 8,-32.8"/>
</g>
<g id="clust4" class="cluster">
<title>cluster_SmsModule_exports</title>
<polygon fill="none" stroke="black" points="35,-170.8 35,-222.8 255,-222.8 255,-170.8 35,-170.8"/>
</g>
<g id="clust6" class="cluster">
<title>cluster_SmsModule_providers</title>
<polygon fill="none" stroke="black" points="16,-40.8 16,-92.8 296,-92.8 296,-40.8 16,-40.8"/>
</g>
<!-- SmsService  -->
<g id="node1" class="node">
<title>SmsService </title>
<polygon fill="#fb8072" stroke="black" points="246.6,-214.8 161.4,-214.8 161.4,-178.8 246.6,-178.8 246.6,-214.8"/>
<text text-anchor="middle" x="204" y="-192.6" font-family="Times,serif" font-size="14.00">SmsService </text>
</g>
<!-- TermiiService  -->
<g id="node2" class="node">
<title>TermiiService </title>
<polygon fill="#fb8072" stroke="black" points="142.58,-214.8 43.42,-214.8 43.42,-178.8 142.58,-178.8 142.58,-214.8"/>
<text text-anchor="middle" x="93" y="-192.6" font-family="Times,serif" font-size="14.00">TermiiService </text>
</g>
<!-- SmsModule -->
<g id="node3" class="node">
<title>SmsModule</title>
<polygon fill="#8dd3c7" stroke="black" points="153.68,-149.8 150.68,-153.8 129.68,-153.8 126.68,-149.8 70.32,-149.8 70.32,-113.8 153.68,-113.8 153.68,-149.8"/>
<text text-anchor="middle" x="112" y="-127.6" font-family="Times,serif" font-size="14.00">SmsModule</text>
</g>
<!-- SmsModule&#45;&gt;SmsService  -->
<g id="edge1" class="edge">
<title>SmsModule&#45;&gt;SmsService </title>
<path fill="none" stroke="black" stroke-dasharray="5,2" d="M148.31,-149.91C148.31,-169.14 148.31,-196.8 148.31,-196.8 148.31,-196.8 151.23,-196.8 151.23,-196.8"/>
<polygon fill="black" stroke="black" points="151.23,-200.3 161.23,-196.8 151.23,-193.3 151.23,-200.3"/>
</g>
<!-- SmsModule&#45;&gt;TermiiService  -->
<g id="edge2" class="edge">
<title>SmsModule&#45;&gt;TermiiService </title>
<path fill="none" stroke="black" stroke-dasharray="5,2" d="M106.48,-149.91C106.48,-149.91 106.48,-168.79 106.48,-168.79"/>
<polygon fill="black" stroke="black" points="102.98,-168.79 106.48,-178.79 109.98,-168.79 102.98,-168.79"/>
</g>
<!-- SmsService -->
<g id="node4" class="node">
<title>SmsService</title>
<ellipse fill="#fdb462" stroke="black" cx="231" cy="-66.8" rx="56.77" ry="18"/>
<text text-anchor="middle" x="231" y="-62.6" font-family="Times,serif" font-size="14.00">SmsService</text>
</g>
<!-- SmsService&#45;&gt;SmsModule -->
<g id="edge3" class="edge">
<title>SmsService&#45;&gt;SmsModule</title>
<path fill="none" stroke="black" d="M210.58,-83.88C210.58,-103.14 210.58,-131.8 210.58,-131.8 210.58,-131.8 163.81,-131.8 163.81,-131.8"/>
<polygon fill="black" stroke="black" points="163.81,-128.3 153.81,-131.8 163.81,-135.3 163.81,-128.3"/>
</g>
<!-- TermiiService -->
<g id="node5" class="node">
<title>TermiiService</title>
<ellipse fill="#fdb462" stroke="black" cx="90" cy="-66.8" rx="66.04" ry="18"/>
<text text-anchor="middle" x="90" y="-62.6" font-family="Times,serif" font-size="14.00">TermiiService</text>
</g>
<!-- TermiiService&#45;&gt;SmsModule -->
<g id="edge4" class="edge">
<title>TermiiService&#45;&gt;SmsModule</title>
<path fill="none" stroke="black" d="M112,-83.88C112,-83.88 112,-103.7 112,-103.7"/>
<polygon fill="black" stroke="black" points="108.5,-103.7 112,-113.7 115.5,-103.7 108.5,-103.7"/>
</g>
</g>
</svg>
