<?xml version="1.0" encoding="UTF-8" standalone="no"?>
<!DOCTYPE svg PUBLIC "-//W3C//DTD SVG 1.1//EN"
 "http://www.w3.org/Graphics/SVG/1.1/DTD/svg11.dtd">
<!-- Generated by graphviz version 5.0.0 (20220707.1540)
 -->
<!-- Title: dependencies Pages: 1 -->
<svg width="360pt" height="247pt"
 viewBox="0.00 0.00 360.00 246.80" xmlns="http://www.w3.org/2000/svg" xmlns:xlink="http://www.w3.org/1999/xlink">
<g id="graph0" class="graph" transform="scale(1 1) rotate(0) translate(4 242.8)">
<title>dependencies</title>
<polygon fill="white" stroke="transparent" points="-4,4 -4,-242.8 356,-242.8 356,4 -4,4"/>
<text text-anchor="middle" x="176" y="-8.2" font-family="sans-serif" font-size="14.00">dependencies</text>
<g id="clust1" class="cluster">
<title>cluster_MailModule</title>
<polygon fill="none" stroke="black" stroke-dasharray="1,5" points="8,-32.8 8,-230.8 344,-230.8 344,-32.8 8,-32.8"/>
</g>
<g id="clust6" class="cluster">
<title>cluster_MailModule_providers</title>
<polygon fill="none" stroke="black" points="16,-40.8 16,-92.8 336,-92.8 336,-40.8 16,-40.8"/>
</g>
<g id="clust4" class="cluster">
<title>cluster_MailModule_exports</title>
<polygon fill="none" stroke="black" points="110,-170.8 110,-222.8 214,-222.8 214,-170.8 110,-170.8"/>
</g>
<!-- MailService  -->
<g id="node1" class="node">
<title>MailService </title>
<polygon fill="#fb8072" stroke="black" points="205.92,-214.8 118.08,-214.8 118.08,-178.8 205.92,-178.8 205.92,-214.8"/>
<text text-anchor="middle" x="162" y="-192.6" font-family="Times,serif" font-size="14.00">MailService </text>
</g>
<!-- MailModule -->
<g id="node2" class="node">
<title>MailModule</title>
<polygon fill="#8dd3c7" stroke="black" points="204.99,-149.8 201.99,-153.8 180.99,-153.8 177.99,-149.8 119.01,-149.8 119.01,-113.8 204.99,-113.8 204.99,-149.8"/>
<text text-anchor="middle" x="162" y="-127.6" font-family="Times,serif" font-size="14.00">MailModule</text>
</g>
<!-- MailModule&#45;&gt;MailService  -->
<g id="edge1" class="edge">
<title>MailModule&#45;&gt;MailService </title>
<path fill="none" stroke="black" stroke-dasharray="5,2" d="M162,-149.91C162,-149.91 162,-168.79 162,-168.79"/>
<polygon fill="black" stroke="black" points="158.5,-168.79 162,-178.79 165.5,-168.79 158.5,-168.79"/>
</g>
<!-- ElasticMailService -->
<g id="node3" class="node">
<title>ElasticMailService</title>
<ellipse fill="#fdb462" stroke="black" cx="243" cy="-66.8" rx="84.52" ry="18"/>
<text text-anchor="middle" x="243" y="-62.6" font-family="Times,serif" font-size="14.00">ElasticMailService</text>
</g>
<!-- ElasticMailService&#45;&gt;MailModule -->
<g id="edge2" class="edge">
<title>ElasticMailService&#45;&gt;MailModule</title>
<path fill="none" stroke="black" d="M181.74,-79.33C181.74,-79.33 181.74,-103.65 181.74,-103.65"/>
<polygon fill="black" stroke="black" points="178.24,-103.65 181.74,-113.65 185.24,-103.65 178.24,-103.65"/>
</g>
<!-- MailService -->
<g id="node4" class="node">
<title>MailService</title>
<ellipse fill="#fdb462" stroke="black" cx="82" cy="-66.8" rx="58.46" ry="18"/>
<text text-anchor="middle" x="82" y="-62.6" font-family="Times,serif" font-size="14.00">MailService</text>
</g>
<!-- MailService&#45;&gt;MailModule -->
<g id="edge3" class="edge">
<title>MailService&#45;&gt;MailModule</title>
<path fill="none" stroke="black" d="M129.62,-77.24C129.62,-77.24 129.62,-103.77 129.62,-103.77"/>
<polygon fill="black" stroke="black" points="126.12,-103.77 129.62,-113.77 133.12,-103.77 126.12,-103.77"/>
</g>
</g>
</svg>
