<?xml version="1.0" encoding="UTF-8" standalone="no"?>
<!DOCTYPE svg PUBLIC "-//W3C//DTD SVG 1.1//EN"
 "http://www.w3.org/Graphics/SVG/1.1/DTD/svg11.dtd">
<!-- Generated by graphviz version 5.0.0 (20220707.1540)
 -->
<!-- Title: dependencies Pages: 1 -->
<svg width="1323pt" height="247pt"
 viewBox="0.00 0.00 1323.00 246.80" xmlns="http://www.w3.org/2000/svg" xmlns:xlink="http://www.w3.org/1999/xlink">
<g id="graph0" class="graph" transform="scale(1 1) rotate(0) translate(4 242.8)">
<title>dependencies</title>
<polygon fill="white" stroke="transparent" points="-4,4 -4,-242.8 1319,-242.8 1319,4 -4,4"/>
<text text-anchor="middle" x="657.5" y="-8.2" font-family="sans-serif" font-size="14.00">dependencies</text>
<g id="clust1" class="cluster">
<title>cluster_AuthModule</title>
<polygon fill="none" stroke="black" stroke-dasharray="1,5" points="8,-32.8 8,-230.8 1307,-230.8 1307,-32.8 8,-32.8"/>
</g>
<g id="clust6" class="cluster">
<title>cluster_AuthModule_providers</title>
<polygon fill="none" stroke="black" points="711,-40.8 711,-92.8 1299,-92.8 1299,-40.8 711,-40.8"/>
</g>
<g id="clust4" class="cluster">
<title>cluster_AuthModule_exports</title>
<polygon fill="none" stroke="black" points="349,-170.8 349,-222.8 809,-222.8 809,-170.8 349,-170.8"/>
</g>
<g id="clust3" class="cluster">
<title>cluster_AuthModule_imports</title>
<polygon fill="none" stroke="black" points="16,-40.8 16,-92.8 703,-92.8 703,-40.8 16,-40.8"/>
</g>
<!-- MailModule -->
<g id="node1" class="node">
<title>MailModule</title>
<polygon fill="#8dd3c7" stroke="black" points="694.99,-84.8 691.99,-88.8 670.99,-88.8 667.99,-84.8 609.01,-84.8 609.01,-48.8 694.99,-48.8 694.99,-84.8"/>
<text text-anchor="middle" x="652" y="-62.6" font-family="Times,serif" font-size="14.00">MailModule</text>
</g>
<!-- AuthModule -->
<g id="node7" class="node">
<title>AuthModule</title>
<polygon fill="#8dd3c7" stroke="black" points="638.55,-149.8 635.55,-153.8 614.55,-153.8 611.55,-149.8 551.45,-149.8 551.45,-113.8 638.55,-113.8 638.55,-149.8"/>
<text text-anchor="middle" x="595" y="-127.6" font-family="Times,serif" font-size="14.00">AuthModule</text>
</g>
<!-- MailModule&#45;&gt;AuthModule -->
<g id="edge1" class="edge">
<title>MailModule&#45;&gt;AuthModule</title>
<path fill="none" stroke="black" d="M623.89,-84.91C623.89,-84.91 623.89,-103.79 623.89,-103.79"/>
<polygon fill="black" stroke="black" points="620.39,-103.79 623.89,-113.79 627.39,-103.79 620.39,-103.79"/>
</g>
<!-- MemberModule -->
<g id="node2" class="node">
<title>MemberModule</title>
<polygon fill="#8dd3c7" stroke="black" points="591.48,-84.8 588.48,-88.8 567.48,-88.8 564.48,-84.8 484.52,-84.8 484.52,-48.8 591.48,-48.8 591.48,-84.8"/>
<text text-anchor="middle" x="538" y="-62.6" font-family="Times,serif" font-size="14.00">MemberModule</text>
</g>
<!-- MemberModule&#45;&gt;AuthModule -->
<g id="edge2" class="edge">
<title>MemberModule&#45;&gt;AuthModule</title>
<path fill="none" stroke="black" d="M571.36,-84.91C571.36,-84.91 571.36,-103.79 571.36,-103.79"/>
<polygon fill="black" stroke="black" points="567.86,-103.79 571.36,-113.79 574.86,-103.79 567.86,-103.79"/>
</g>
<!-- OrganizationModule -->
<g id="node3" class="node">
<title>OrganizationModule</title>
<polygon fill="#8dd3c7" stroke="black" points="466.14,-84.8 463.14,-88.8 442.14,-88.8 439.14,-84.8 333.86,-84.8 333.86,-48.8 466.14,-48.8 466.14,-84.8"/>
<text text-anchor="middle" x="400" y="-62.6" font-family="Times,serif" font-size="14.00">OrganizationModule</text>
</g>
<!-- OrganizationModule&#45;&gt;AuthModule -->
<g id="edge3" class="edge">
<title>OrganizationModule&#45;&gt;AuthModule</title>
<path fill="none" stroke="black" d="M411.48,-85.04C411.48,-100.37 411.48,-119.8 411.48,-119.8 411.48,-119.8 541.04,-119.8 541.04,-119.8"/>
<polygon fill="black" stroke="black" points="541.04,-123.3 551.04,-119.8 541.04,-116.3 541.04,-123.3"/>
</g>
<!-- RoleModule -->
<g id="node4" class="node">
<title>RoleModule</title>
<polygon fill="#8dd3c7" stroke="black" points="315.99,-84.8 312.99,-88.8 291.99,-88.8 288.99,-84.8 230.01,-84.8 230.01,-48.8 315.99,-48.8 315.99,-84.8"/>
<text text-anchor="middle" x="273" y="-62.6" font-family="Times,serif" font-size="14.00">RoleModule</text>
</g>
<!-- RoleModule&#45;&gt;AuthModule -->
<g id="edge4" class="edge">
<title>RoleModule&#45;&gt;AuthModule</title>
<path fill="none" stroke="black" d="M273,-84.82C273,-102.17 273,-125.8 273,-125.8 273,-125.8 541.24,-125.8 541.24,-125.8"/>
<polygon fill="black" stroke="black" points="541.24,-129.3 551.24,-125.8 541.24,-122.3 541.24,-129.3"/>
</g>
<!-- SmsModule -->
<g id="node5" class="node">
<title>SmsModule</title>
<polygon fill="#8dd3c7" stroke="black" points="211.68,-84.8 208.68,-88.8 187.68,-88.8 184.68,-84.8 128.32,-84.8 128.32,-48.8 211.68,-48.8 211.68,-84.8"/>
<text text-anchor="middle" x="170" y="-62.6" font-family="Times,serif" font-size="14.00">SmsModule</text>
</g>
<!-- SmsModule&#45;&gt;AuthModule -->
<g id="edge5" class="edge">
<title>SmsModule&#45;&gt;AuthModule</title>
<path fill="none" stroke="black" d="M170,-84.91C170,-104.14 170,-131.8 170,-131.8 170,-131.8 541.12,-131.8 541.12,-131.8"/>
<polygon fill="black" stroke="black" points="541.12,-135.3 551.12,-131.8 541.12,-128.3 541.12,-135.3"/>
</g>
<!-- UserModule -->
<g id="node6" class="node">
<title>UserModule</title>
<polygon fill="#8dd3c7" stroke="black" points="109.99,-84.8 106.99,-88.8 85.99,-88.8 82.99,-84.8 24.01,-84.8 24.01,-48.8 109.99,-48.8 109.99,-84.8"/>
<text text-anchor="middle" x="67" y="-62.6" font-family="Times,serif" font-size="14.00">UserModule</text>
</g>
<!-- UserModule&#45;&gt;AuthModule -->
<g id="edge6" class="edge">
<title>UserModule&#45;&gt;AuthModule</title>
<path fill="none" stroke="black" d="M67,-85.08C67,-106.12 67,-137.8 67,-137.8 67,-137.8 541.34,-137.8 541.34,-137.8"/>
<polygon fill="black" stroke="black" points="541.34,-141.3 551.34,-137.8 541.34,-134.3 541.34,-141.3"/>
</g>
<!-- AuthService  -->
<g id="node8" class="node">
<title>AuthService </title>
<polygon fill="#fb8072" stroke="black" points="800.98,-214.8 711.02,-214.8 711.02,-178.8 800.98,-178.8 800.98,-214.8"/>
<text text-anchor="middle" x="756" y="-192.6" font-family="Times,serif" font-size="14.00">AuthService </text>
</g>
<!-- AuthModule&#45;&gt;AuthService  -->
<g id="edge7" class="edge">
<title>AuthModule&#45;&gt;AuthService </title>
<path fill="none" stroke="black" stroke-dasharray="5,2" d="M638.69,-143.8C673.03,-143.8 715.09,-143.8 715.09,-143.8 715.09,-143.8 715.09,-168.56 715.09,-168.56"/>
<polygon fill="black" stroke="black" points="711.59,-168.56 715.09,-178.56 718.59,-168.56 711.59,-168.56"/>
</g>
<!-- JwtStrategy  -->
<g id="node9" class="node">
<title>JwtStrategy </title>
<polygon fill="#fb8072" stroke="black" points="692.6,-214.8 607.4,-214.8 607.4,-178.8 692.6,-178.8 692.6,-214.8"/>
<text text-anchor="middle" x="650" y="-192.6" font-family="Times,serif" font-size="14.00">JwtStrategy </text>
</g>
<!-- AuthModule&#45;&gt;JwtStrategy  -->
<g id="edge8" class="edge">
<title>AuthModule&#45;&gt;JwtStrategy </title>
<path fill="none" stroke="black" stroke-dasharray="5,2" d="M622.99,-149.91C622.99,-149.91 622.99,-168.79 622.99,-168.79"/>
<polygon fill="black" stroke="black" points="619.49,-168.79 622.99,-178.79 626.49,-168.79 619.49,-168.79"/>
</g>
<!-- LocalStrategy  -->
<g id="node10" class="node">
<title>LocalStrategy </title>
<polygon fill="#fb8072" stroke="black" points="589.02,-214.8 490.98,-214.8 490.98,-178.8 589.02,-178.8 589.02,-214.8"/>
<text text-anchor="middle" x="540" y="-192.6" font-family="Times,serif" font-size="14.00">LocalStrategy </text>
</g>
<!-- AuthModule&#45;&gt;LocalStrategy  -->
<g id="edge9" class="edge">
<title>AuthModule&#45;&gt;LocalStrategy </title>
<path fill="none" stroke="black" stroke-dasharray="5,2" d="M570.12,-149.91C570.12,-149.91 570.12,-168.79 570.12,-168.79"/>
<polygon fill="black" stroke="black" points="566.62,-168.79 570.12,-178.79 573.62,-168.79 566.62,-168.79"/>
</g>
<!-- TokenRepository  -->
<g id="node11" class="node">
<title>TokenRepository </title>
<polygon fill="#fb8072" stroke="black" points="473.21,-214.8 356.79,-214.8 356.79,-178.8 473.21,-178.8 473.21,-214.8"/>
<text text-anchor="middle" x="415" y="-192.6" font-family="Times,serif" font-size="14.00">TokenRepository </text>
</g>
<!-- AuthModule&#45;&gt;TokenRepository  -->
<g id="edge10" class="edge">
<title>AuthModule&#45;&gt;TokenRepository </title>
<path fill="none" stroke="black" stroke-dasharray="5,2" d="M551.22,-143.8C515.13,-143.8 469.84,-143.8 469.84,-143.8 469.84,-143.8 469.84,-168.56 469.84,-168.56"/>
<polygon fill="black" stroke="black" points="466.34,-168.56 469.84,-178.56 473.34,-168.56 466.34,-168.56"/>
</g>
<!-- AuthService -->
<g id="node12" class="node">
<title>AuthService</title>
<ellipse fill="#fdb462" stroke="black" cx="1232" cy="-66.8" rx="59.11" ry="18"/>
<text text-anchor="middle" x="1232" y="-62.6" font-family="Times,serif" font-size="14.00">AuthService</text>
</g>
<!-- AuthService&#45;&gt;AuthModule -->
<g id="edge11" class="edge">
<title>AuthService&#45;&gt;AuthModule</title>
<path fill="none" stroke="black" d="M1232,-85.08C1232,-106.12 1232,-137.8 1232,-137.8 1232,-137.8 648.78,-137.8 648.78,-137.8"/>
<polygon fill="black" stroke="black" points="648.78,-134.3 638.78,-137.8 648.78,-141.3 648.78,-134.3"/>
</g>
<!-- JwtStrategy -->
<g id="node13" class="node">
<title>JwtStrategy</title>
<ellipse fill="#fdb462" stroke="black" cx="1098" cy="-66.8" rx="56.77" ry="18"/>
<text text-anchor="middle" x="1098" y="-62.6" font-family="Times,serif" font-size="14.00">JwtStrategy</text>
</g>
<!-- JwtStrategy&#45;&gt;AuthModule -->
<g id="edge12" class="edge">
<title>JwtStrategy&#45;&gt;AuthModule</title>
<path fill="none" stroke="black" d="M1098,-84.91C1098,-104.14 1098,-131.8 1098,-131.8 1098,-131.8 648.76,-131.8 648.76,-131.8"/>
<polygon fill="black" stroke="black" points="648.76,-128.3 638.76,-131.8 648.76,-135.3 648.76,-128.3"/>
</g>
<!-- LocalStrategy -->
<g id="node14" class="node">
<title>LocalStrategy</title>
<ellipse fill="#fdb462" stroke="black" cx="958" cy="-66.8" rx="65.4" ry="18"/>
<text text-anchor="middle" x="958" y="-62.6" font-family="Times,serif" font-size="14.00">LocalStrategy</text>
</g>
<!-- LocalStrategy&#45;&gt;AuthModule -->
<g id="edge13" class="edge">
<title>LocalStrategy&#45;&gt;AuthModule</title>
<path fill="none" stroke="black" d="M958,-84.82C958,-102.17 958,-125.8 958,-125.8 958,-125.8 648.79,-125.8 648.79,-125.8"/>
<polygon fill="black" stroke="black" points="648.79,-122.3 638.79,-125.8 648.79,-129.3 648.79,-122.3"/>
</g>
<!-- TokenRepository -->
<g id="node15" class="node">
<title>TokenRepository</title>
<ellipse fill="#fdb462" stroke="black" cx="797" cy="-66.8" rx="78.18" ry="18"/>
<text text-anchor="middle" x="797" y="-62.6" font-family="Times,serif" font-size="14.00">TokenRepository</text>
</g>
<!-- TokenRepository&#45;&gt;AuthModule -->
<g id="edge14" class="edge">
<title>TokenRepository&#45;&gt;AuthModule</title>
<path fill="none" stroke="black" d="M759.83,-82.7C759.83,-98.31 759.83,-119.8 759.83,-119.8 759.83,-119.8 648.74,-119.8 648.74,-119.8"/>
<polygon fill="black" stroke="black" points="648.74,-116.3 638.74,-119.8 648.74,-123.3 648.74,-116.3"/>
</g>
</g>
</svg>
