<?xml version="1.0" encoding="UTF-8" standalone="no"?>
<!DOCTYPE svg PUBLIC "-//W3C//DTD SVG 1.1//EN"
 "http://www.w3.org/Graphics/SVG/1.1/DTD/svg11.dtd">
<!-- Generated by graphviz version 5.0.0 (20220707.1540)
 -->
<!-- Title: dependencies Pages: 1 -->
<svg width="462pt" height="247pt"
 viewBox="0.00 0.00 462.00 246.80" xmlns="http://www.w3.org/2000/svg" xmlns:xlink="http://www.w3.org/1999/xlink">
<g id="graph0" class="graph" transform="scale(1 1) rotate(0) translate(4 242.8)">
<title>dependencies</title>
<polygon fill="white" stroke="transparent" points="-4,4 -4,-242.8 458,-242.8 458,4 -4,4"/>
<text text-anchor="middle" x="227" y="-8.2" font-family="sans-serif" font-size="14.00">dependencies</text>
<g id="clust1" class="cluster">
<title>cluster_OrganizationModule</title>
<polygon fill="none" stroke="black" stroke-dasharray="1,5" points="8,-32.8 8,-230.8 446,-230.8 446,-32.8 8,-32.8"/>
</g>
<g id="clust4" class="cluster">
<title>cluster_OrganizationModule_exports</title>
<polygon fill="none" stroke="black" points="47,-170.8 47,-222.8 369,-222.8 369,-170.8 47,-170.8"/>
</g>
<g id="clust6" class="cluster">
<title>cluster_OrganizationModule_providers</title>
<polygon fill="none" stroke="black" points="16,-40.8 16,-92.8 438,-92.8 438,-40.8 16,-40.8"/>
</g>
<!-- OrganizationRepository  -->
<g id="node1" class="node">
<title>OrganizationRepository </title>
<polygon fill="#fb8072" stroke="black" points="361.02,-214.8 206.98,-214.8 206.98,-178.8 361.02,-178.8 361.02,-214.8"/>
<text text-anchor="middle" x="284" y="-192.6" font-family="Times,serif" font-size="14.00">OrganizationRepository </text>
</g>
<!-- OrganizationService  -->
<g id="node2" class="node">
<title>OrganizationService </title>
<polygon fill="#fb8072" stroke="black" points="189.06,-214.8 54.94,-214.8 54.94,-178.8 189.06,-178.8 189.06,-214.8"/>
<text text-anchor="middle" x="122" y="-192.6" font-family="Times,serif" font-size="14.00">OrganizationService </text>
</g>
<!-- OrganizationModule -->
<g id="node3" class="node">
<title>OrganizationModule</title>
<polygon fill="#8dd3c7" stroke="black" points="218.14,-149.8 215.14,-153.8 194.14,-153.8 191.14,-149.8 85.86,-149.8 85.86,-113.8 218.14,-113.8 218.14,-149.8"/>
<text text-anchor="middle" x="152" y="-127.6" font-family="Times,serif" font-size="14.00">OrganizationModule</text>
</g>
<!-- OrganizationModule&#45;&gt;OrganizationRepository  -->
<g id="edge1" class="edge">
<title>OrganizationModule&#45;&gt;OrganizationRepository </title>
<path fill="none" stroke="black" stroke-dasharray="5,2" d="M212.65,-149.91C212.65,-149.91 212.65,-168.79 212.65,-168.79"/>
<polygon fill="black" stroke="black" points="209.15,-168.79 212.65,-178.79 216.15,-168.79 209.15,-168.79"/>
</g>
<!-- OrganizationModule&#45;&gt;OrganizationService  -->
<g id="edge2" class="edge">
<title>OrganizationModule&#45;&gt;OrganizationService </title>
<path fill="none" stroke="black" stroke-dasharray="5,2" d="M137.48,-149.91C137.48,-149.91 137.48,-168.79 137.48,-168.79"/>
<polygon fill="black" stroke="black" points="133.98,-168.79 137.48,-178.79 140.98,-168.79 133.98,-168.79"/>
</g>
<!-- OrganizationRepository -->
<g id="node4" class="node">
<title>OrganizationRepository</title>
<ellipse fill="#fdb462" stroke="black" cx="326" cy="-66.8" rx="103.66" ry="18"/>
<text text-anchor="middle" x="326" y="-62.6" font-family="Times,serif" font-size="14.00">OrganizationRepository</text>
</g>
<!-- OrganizationRepository&#45;&gt;OrganizationModule -->
<g id="edge3" class="edge">
<title>OrganizationRepository&#45;&gt;OrganizationModule</title>
<path fill="none" stroke="black" d="M221.94,-66.8C215.39,-66.8 211.36,-66.8 211.36,-66.8 211.36,-66.8 211.36,-103.69 211.36,-103.69"/>
<polygon fill="black" stroke="black" points="207.86,-103.69 211.36,-113.69 214.86,-103.69 207.86,-103.69"/>
</g>
<!-- OrganizationService -->
<g id="node5" class="node">
<title>OrganizationService</title>
<ellipse fill="#fdb462" stroke="black" cx="114" cy="-66.8" rx="90.31" ry="18"/>
<text text-anchor="middle" x="114" y="-62.6" font-family="Times,serif" font-size="14.00">OrganizationService</text>
</g>
<!-- OrganizationService&#45;&gt;OrganizationModule -->
<g id="edge4" class="edge">
<title>OrganizationService&#45;&gt;OrganizationModule</title>
<path fill="none" stroke="black" d="M145.04,-83.88C145.04,-83.88 145.04,-103.7 145.04,-103.7"/>
<polygon fill="black" stroke="black" points="141.54,-103.7 145.04,-113.7 148.54,-103.7 141.54,-103.7"/>
</g>
</g>
</svg>
