<?xml version="1.0" encoding="UTF-8" standalone="no"?>
<!DOCTYPE svg PUBLIC "-//W3C//DTD SVG 1.1//EN"
 "http://www.w3.org/Graphics/SVG/1.1/DTD/svg11.dtd">
<!-- Generated by graphviz version 5.0.0 (20220707.1540)
 -->
<!-- Title: dependencies Pages: 1 -->
<svg width="404pt" height="247pt"
 viewBox="0.00 0.00 404.00 246.80" xmlns="http://www.w3.org/2000/svg" xmlns:xlink="http://www.w3.org/1999/xlink">
<g id="graph0" class="graph" transform="scale(1 1) rotate(0) translate(4 242.8)">
<title>dependencies</title>
<polygon fill="white" stroke="transparent" points="-4,4 -4,-242.8 400,-242.8 400,4 -4,4"/>
<text text-anchor="middle" x="198" y="-8.2" font-family="sans-serif" font-size="14.00">dependencies</text>
<g id="clust1" class="cluster">
<title>cluster_ResourceModule</title>
<polygon fill="none" stroke="black" stroke-dasharray="1,5" points="8,-32.8 8,-230.8 388,-230.8 388,-32.8 8,-32.8"/>
</g>
<g id="clust6" class="cluster">
<title>cluster_ResourceModule_providers</title>
<polygon fill="none" stroke="black" points="16,-40.8 16,-92.8 380,-92.8 380,-40.8 16,-40.8"/>
</g>
<g id="clust4" class="cluster">
<title>cluster_ResourceModule_exports</title>
<polygon fill="none" stroke="black" points="42,-170.8 42,-222.8 323,-222.8 323,-170.8 42,-170.8"/>
</g>
<!-- ResourceRepository  -->
<g id="node1" class="node">
<title>ResourceRepository </title>
<polygon fill="#fb8072" stroke="black" points="314.53,-214.8 181.47,-214.8 181.47,-178.8 314.53,-178.8 314.53,-214.8"/>
<text text-anchor="middle" x="248" y="-192.6" font-family="Times,serif" font-size="14.00">ResourceRepository </text>
</g>
<!-- ResourceService  -->
<g id="node2" class="node">
<title>ResourceService </title>
<polygon fill="#fb8072" stroke="black" points="163.57,-214.8 50.43,-214.8 50.43,-178.8 163.57,-178.8 163.57,-214.8"/>
<text text-anchor="middle" x="107" y="-192.6" font-family="Times,serif" font-size="14.00">ResourceService </text>
</g>
<!-- ResourceModule -->
<g id="node3" class="node">
<title>ResourceModule</title>
<polygon fill="#8dd3c7" stroke="black" points="187.64,-149.8 184.64,-153.8 163.64,-153.8 160.64,-149.8 76.36,-149.8 76.36,-113.8 187.64,-113.8 187.64,-149.8"/>
<text text-anchor="middle" x="132" y="-127.6" font-family="Times,serif" font-size="14.00">ResourceModule</text>
</g>
<!-- ResourceModule&#45;&gt;ResourceRepository  -->
<g id="edge1" class="edge">
<title>ResourceModule&#45;&gt;ResourceRepository </title>
<path fill="none" stroke="black" stroke-dasharray="5,2" d="M172.63,-149.91C172.63,-169.14 172.63,-196.8 172.63,-196.8 172.63,-196.8 173.5,-196.8 173.5,-196.8"/>
<polygon fill="black" stroke="black" points="171.28,-200.3 181.28,-196.8 171.28,-193.3 171.28,-200.3"/>
</g>
<!-- ResourceModule&#45;&gt;ResourceService  -->
<g id="edge2" class="edge">
<title>ResourceModule&#45;&gt;ResourceService </title>
<path fill="none" stroke="black" stroke-dasharray="5,2" d="M119.98,-149.91C119.98,-149.91 119.98,-168.79 119.98,-168.79"/>
<polygon fill="black" stroke="black" points="116.48,-168.79 119.98,-178.79 123.48,-168.79 116.48,-168.79"/>
</g>
<!-- ResourceRepository -->
<g id="node4" class="node">
<title>ResourceRepository</title>
<ellipse fill="#fdb462" stroke="black" cx="283" cy="-66.8" rx="89.2" ry="18"/>
<text text-anchor="middle" x="283" y="-62.6" font-family="Times,serif" font-size="14.00">ResourceRepository</text>
</g>
<!-- ResourceRepository&#45;&gt;ResourceModule -->
<g id="edge3" class="edge">
<title>ResourceRepository&#45;&gt;ResourceModule</title>
<path fill="none" stroke="black" d="M193.47,-66.8C186.37,-66.8 181.87,-66.8 181.87,-66.8 181.87,-66.8 181.87,-103.69 181.87,-103.69"/>
<polygon fill="black" stroke="black" points="178.37,-103.69 181.87,-113.69 185.37,-103.69 178.37,-103.69"/>
</g>
<!-- ResourceService -->
<g id="node5" class="node">
<title>ResourceService</title>
<ellipse fill="#fdb462" stroke="black" cx="100" cy="-66.8" rx="75.85" ry="18"/>
<text text-anchor="middle" x="100" y="-62.6" font-family="Times,serif" font-size="14.00">ResourceService</text>
</g>
<!-- ResourceService&#45;&gt;ResourceModule -->
<g id="edge4" class="edge">
<title>ResourceService&#45;&gt;ResourceModule</title>
<path fill="none" stroke="black" d="M126.05,-83.88C126.05,-83.88 126.05,-103.7 126.05,-103.7"/>
<polygon fill="black" stroke="black" points="122.55,-103.7 126.05,-113.7 129.55,-103.7 122.55,-103.7"/>
</g>
</g>
</svg>
