<?xml version="1.0" encoding="UTF-8" standalone="no"?>
<!DOCTYPE svg PUBLIC "-//W3C//DTD SVG 1.1//EN"
 "http://www.w3.org/Graphics/SVG/1.1/DTD/svg11.dtd">
<!-- Generated by graphviz version 5.0.0 (20220707.1540)
 -->
<!-- Title: dependencies Pages: 1 -->
<svg width="895pt" height="174pt"
 viewBox="0.00 0.00 895.00 173.80" xmlns="http://www.w3.org/2000/svg" xmlns:xlink="http://www.w3.org/1999/xlink">
<g id="graph0" class="graph" transform="scale(1 1) rotate(0) translate(4 169.8)">
<title>dependencies</title>
<polygon fill="white" stroke="transparent" points="-4,4 -4,-169.8 891,-169.8 891,4 -4,4"/>
<text text-anchor="middle" x="443.5" y="-8.2" font-family="sans-serif" font-size="14.00">dependencies</text>
<g id="clust1" class="cluster">
<title>cluster_AppModule</title>
<polygon fill="none" stroke="black" stroke-dasharray="1,5" points="8,-32.8 8,-157.8 879,-157.8 879,-32.8 8,-32.8"/>
</g>
<g id="clust3" class="cluster">
<title>cluster_AppModule_imports</title>
<polygon fill="none" stroke="black" points="154,-40.8 154,-92.8 871,-92.8 871,-40.8 154,-40.8"/>
</g>
<g id="clust6" class="cluster">
<title>cluster_AppModule_providers</title>
<polygon fill="none" stroke="black" points="16,-40.8 16,-92.8 146,-92.8 146,-40.8 16,-40.8"/>
</g>
<!-- AuthModule -->
<g id="node1" class="node">
<title>AuthModule</title>
<polygon fill="#8dd3c7" stroke="black" points="862.55,-84.8 859.55,-88.8 838.55,-88.8 835.55,-84.8 775.45,-84.8 775.45,-48.8 862.55,-48.8 862.55,-84.8"/>
<text text-anchor="middle" x="819" y="-62.6" font-family="Times,serif" font-size="14.00">AuthModule</text>
</g>
<!-- AppModule -->
<g id="node7" class="node">
<title>AppModule</title>
<polygon fill="#8dd3c7" stroke="black" points="467.66,-149.8 464.66,-153.8 443.66,-153.8 440.66,-149.8 384.34,-149.8 384.34,-113.8 467.66,-113.8 467.66,-149.8"/>
<text text-anchor="middle" x="426" y="-127.6" font-family="Times,serif" font-size="14.00">AppModule</text>
</g>
<!-- AuthModule&#45;&gt;AppModule -->
<g id="edge1" class="edge">
<title>AuthModule&#45;&gt;AppModule</title>
<path fill="none" stroke="black" d="M819,-85.09C819,-107.01 819,-140.8 819,-140.8 819,-140.8 477.69,-140.8 477.69,-140.8"/>
<polygon fill="black" stroke="black" points="477.69,-137.3 467.69,-140.8 477.69,-144.3 477.69,-137.3"/>
</g>
<!-- MemberModule -->
<g id="node2" class="node">
<title>MemberModule</title>
<polygon fill="#8dd3c7" stroke="black" points="757.48,-84.8 754.48,-88.8 733.48,-88.8 730.48,-84.8 650.52,-84.8 650.52,-48.8 757.48,-48.8 757.48,-84.8"/>
<text text-anchor="middle" x="704" y="-62.6" font-family="Times,serif" font-size="14.00">MemberModule</text>
</g>
<!-- MemberModule&#45;&gt;AppModule -->
<g id="edge2" class="edge">
<title>MemberModule&#45;&gt;AppModule</title>
<path fill="none" stroke="black" d="M704,-84.91C704,-104.14 704,-131.8 704,-131.8 704,-131.8 477.92,-131.8 477.92,-131.8"/>
<polygon fill="black" stroke="black" points="477.92,-128.3 467.92,-131.8 477.92,-135.3 477.92,-128.3"/>
</g>
<!-- OrganizationModule -->
<g id="node3" class="node">
<title>OrganizationModule</title>
<polygon fill="#8dd3c7" stroke="black" points="632.14,-84.8 629.14,-88.8 608.14,-88.8 605.14,-84.8 499.86,-84.8 499.86,-48.8 632.14,-48.8 632.14,-84.8"/>
<text text-anchor="middle" x="566" y="-62.6" font-family="Times,serif" font-size="14.00">OrganizationModule</text>
</g>
<!-- OrganizationModule&#45;&gt;AppModule -->
<g id="edge3" class="edge">
<title>OrganizationModule&#45;&gt;AppModule</title>
<path fill="none" stroke="black" d="M566,-84.83C566,-101.2 566,-122.8 566,-122.8 566,-122.8 478,-122.8 478,-122.8"/>
<polygon fill="black" stroke="black" points="478,-119.3 468,-122.8 478,-126.3 478,-119.3"/>
</g>
<!-- ResourceModule -->
<g id="node4" class="node">
<title>ResourceModule</title>
<polygon fill="#8dd3c7" stroke="black" points="481.64,-84.8 478.64,-88.8 457.64,-88.8 454.64,-84.8 370.36,-84.8 370.36,-48.8 481.64,-48.8 481.64,-84.8"/>
<text text-anchor="middle" x="426" y="-62.6" font-family="Times,serif" font-size="14.00">ResourceModule</text>
</g>
<!-- ResourceModule&#45;&gt;AppModule -->
<g id="edge4" class="edge">
<title>ResourceModule&#45;&gt;AppModule</title>
<path fill="none" stroke="black" d="M426,-84.91C426,-84.91 426,-103.79 426,-103.79"/>
<polygon fill="black" stroke="black" points="422.5,-103.79 426,-113.79 429.5,-103.79 422.5,-103.79"/>
</g>
<!-- RoleModule -->
<g id="node5" class="node">
<title>RoleModule</title>
<polygon fill="#8dd3c7" stroke="black" points="351.99,-84.8 348.99,-88.8 327.99,-88.8 324.99,-84.8 266.01,-84.8 266.01,-48.8 351.99,-48.8 351.99,-84.8"/>
<text text-anchor="middle" x="309" y="-62.6" font-family="Times,serif" font-size="14.00">RoleModule</text>
</g>
<!-- RoleModule&#45;&gt;AppModule -->
<g id="edge5" class="edge">
<title>RoleModule&#45;&gt;AppModule</title>
<path fill="none" stroke="black" d="M309,-84.83C309,-101.2 309,-122.8 309,-122.8 309,-122.8 374.09,-122.8 374.09,-122.8"/>
<polygon fill="black" stroke="black" points="374.09,-126.3 384.09,-122.8 374.09,-119.3 374.09,-126.3"/>
</g>
<!-- UserModule -->
<g id="node6" class="node">
<title>UserModule</title>
<polygon fill="#8dd3c7" stroke="black" points="247.99,-84.8 244.99,-88.8 223.99,-88.8 220.99,-84.8 162.01,-84.8 162.01,-48.8 247.99,-48.8 247.99,-84.8"/>
<text text-anchor="middle" x="205" y="-62.6" font-family="Times,serif" font-size="14.00">UserModule</text>
</g>
<!-- UserModule&#45;&gt;AppModule -->
<g id="edge6" class="edge">
<title>UserModule&#45;&gt;AppModule</title>
<path fill="none" stroke="black" d="M205,-84.91C205,-104.14 205,-131.8 205,-131.8 205,-131.8 374.17,-131.8 374.17,-131.8"/>
<polygon fill="black" stroke="black" points="374.17,-135.3 384.17,-131.8 374.17,-128.3 374.17,-135.3"/>
</g>
<!-- AppService -->
<g id="node8" class="node">
<title>AppService</title>
<ellipse fill="#fdb462" stroke="black" cx="81" cy="-66.8" rx="56.75" ry="18"/>
<text text-anchor="middle" x="81" y="-62.6" font-family="Times,serif" font-size="14.00">AppService</text>
</g>
<!-- AppService&#45;&gt;AppModule -->
<g id="edge7" class="edge">
<title>AppService&#45;&gt;AppModule</title>
<path fill="none" stroke="black" d="M81,-85.09C81,-107.01 81,-140.8 81,-140.8 81,-140.8 374.04,-140.8 374.04,-140.8"/>
<polygon fill="black" stroke="black" points="374.04,-144.3 384.04,-140.8 374.04,-137.3 374.04,-144.3"/>
</g>
</g>
</svg>
