<?xml version="1.0" encoding="UTF-8" standalone="no"?>
<!DOCTYPE svg PUBLIC "-//W3C//DTD SVG 1.1//EN"
 "http://www.w3.org/Graphics/SVG/1.1/DTD/svg11.dtd">
<!-- Generated by graphviz version 5.0.0 (20220707.1540)
 -->
<!-- Title: dependencies Pages: 1 -->
<svg width="392pt" height="247pt"
 viewBox="0.00 0.00 392.00 246.80" xmlns="http://www.w3.org/2000/svg" xmlns:xlink="http://www.w3.org/1999/xlink">
<g id="graph0" class="graph" transform="scale(1 1) rotate(0) translate(4 242.8)">
<title>dependencies</title>
<polygon fill="white" stroke="transparent" points="-4,4 -4,-242.8 388,-242.8 388,4 -4,4"/>
<text text-anchor="middle" x="192" y="-8.2" font-family="sans-serif" font-size="14.00">dependencies</text>
<g id="clust1" class="cluster">
<title>cluster_MemberModule</title>
<polygon fill="none" stroke="black" stroke-dasharray="1,5" points="8,-32.8 8,-230.8 376,-230.8 376,-32.8 8,-32.8"/>
</g>
<g id="clust4" class="cluster">
<title>cluster_MemberModule_exports</title>
<polygon fill="none" stroke="black" points="41,-170.8 41,-222.8 312,-222.8 312,-170.8 41,-170.8"/>
</g>
<g id="clust6" class="cluster">
<title>cluster_MemberModule_providers</title>
<polygon fill="none" stroke="black" points="16,-40.8 16,-92.8 368,-92.8 368,-40.8 16,-40.8"/>
</g>
<!-- MemberRepository  -->
<g id="node1" class="node">
<title>MemberRepository </title>
<polygon fill="#fb8072" stroke="black" points="304.37,-214.8 175.63,-214.8 175.63,-178.8 304.37,-178.8 304.37,-214.8"/>
<text text-anchor="middle" x="240" y="-192.6" font-family="Times,serif" font-size="14.00">MemberRepository </text>
</g>
<!-- MemberService  -->
<g id="node2" class="node">
<title>MemberService </title>
<polygon fill="#fb8072" stroke="black" points="157.41,-214.8 48.59,-214.8 48.59,-178.8 157.41,-178.8 157.41,-214.8"/>
<text text-anchor="middle" x="103" y="-192.6" font-family="Times,serif" font-size="14.00">MemberService </text>
</g>
<!-- MemberModule -->
<g id="node3" class="node">
<title>MemberModule</title>
<polygon fill="#8dd3c7" stroke="black" points="181.48,-149.8 178.48,-153.8 157.48,-153.8 154.48,-149.8 74.52,-149.8 74.52,-113.8 181.48,-113.8 181.48,-149.8"/>
<text text-anchor="middle" x="128" y="-127.6" font-family="Times,serif" font-size="14.00">MemberModule</text>
</g>
<!-- MemberModule&#45;&gt;MemberRepository  -->
<g id="edge1" class="edge">
<title>MemberModule&#45;&gt;MemberRepository </title>
<path fill="none" stroke="black" stroke-dasharray="5,2" d="M166.63,-149.91C166.63,-169.14 166.63,-196.8 166.63,-196.8 166.63,-196.8 167.53,-196.8 167.53,-196.8"/>
<polygon fill="black" stroke="black" points="165.63,-200.3 175.63,-196.8 165.63,-193.3 165.63,-200.3"/>
</g>
<!-- MemberModule&#45;&gt;MemberService  -->
<g id="edge2" class="edge">
<title>MemberModule&#45;&gt;MemberService </title>
<path fill="none" stroke="black" stroke-dasharray="5,2" d="M115.98,-149.91C115.98,-149.91 115.98,-168.79 115.98,-168.79"/>
<polygon fill="black" stroke="black" points="112.48,-168.79 115.98,-178.79 119.48,-168.79 112.48,-168.79"/>
</g>
<!-- MemberRepository -->
<g id="node4" class="node">
<title>MemberRepository</title>
<ellipse fill="#fdb462" stroke="black" cx="274" cy="-66.8" rx="86.27" ry="18"/>
<text text-anchor="middle" x="274" y="-62.6" font-family="Times,serif" font-size="14.00">MemberRepository</text>
</g>
<!-- MemberRepository&#45;&gt;MemberModule -->
<g id="edge3" class="edge">
<title>MemberRepository&#45;&gt;MemberModule</title>
<path fill="none" stroke="black" d="M187.66,-66.8C180.31,-66.8 175.6,-66.8 175.6,-66.8 175.6,-66.8 175.6,-103.69 175.6,-103.69"/>
<polygon fill="black" stroke="black" points="172.1,-103.69 175.6,-113.69 179.1,-103.69 172.1,-103.69"/>
</g>
<!-- MemberService -->
<g id="node5" class="node">
<title>MemberService</title>
<ellipse fill="#fdb462" stroke="black" cx="97" cy="-66.8" rx="72.92" ry="18"/>
<text text-anchor="middle" x="97" y="-62.6" font-family="Times,serif" font-size="14.00">MemberService</text>
</g>
<!-- MemberService&#45;&gt;MemberModule -->
<g id="edge4" class="edge">
<title>MemberService&#45;&gt;MemberModule</title>
<path fill="none" stroke="black" d="M122.11,-83.88C122.11,-83.88 122.11,-103.7 122.11,-103.7"/>
<polygon fill="black" stroke="black" points="118.61,-103.7 122.11,-113.7 125.61,-103.7 118.61,-103.7"/>
</g>
</g>
</svg>
