<?xml version="1.0" encoding="UTF-8" standalone="no"?>
<!DOCTYPE svg PUBLIC "-//W3C//DTD SVG 1.1//EN"
 "http://www.w3.org/Graphics/SVG/1.1/DTD/svg11.dtd">
<!-- Generated by graphviz version 5.0.0 (20220707.1540)
 -->
<!-- Title: dependencies Pages: 1 -->
<svg width="334pt" height="247pt"
 viewBox="0.00 0.00 334.00 246.80" xmlns="http://www.w3.org/2000/svg" xmlns:xlink="http://www.w3.org/1999/xlink">
<g id="graph0" class="graph" transform="scale(1 1) rotate(0) translate(4 242.8)">
<title>dependencies</title>
<polygon fill="white" stroke="transparent" points="-4,4 -4,-242.8 330,-242.8 330,4 -4,4"/>
<text text-anchor="middle" x="163" y="-8.2" font-family="sans-serif" font-size="14.00">dependencies</text>
<g id="clust1" class="cluster">
<title>cluster_RoleModule</title>
<polygon fill="none" stroke="black" stroke-dasharray="1,5" points="8,-32.8 8,-230.8 318,-230.8 318,-32.8 8,-32.8"/>
</g>
<g id="clust4" class="cluster">
<title>cluster_RoleModule_exports</title>
<polygon fill="none" stroke="black" points="36,-170.8 36,-222.8 266,-222.8 266,-170.8 36,-170.8"/>
</g>
<g id="clust6" class="cluster">
<title>cluster_RoleModule_providers</title>
<polygon fill="none" stroke="black" points="16,-40.8 16,-92.8 310,-92.8 310,-40.8 16,-40.8"/>
</g>
<!-- RoleRepository  -->
<g id="node1" class="node">
<title>RoleRepository </title>
<polygon fill="#fb8072" stroke="black" points="257.88,-214.8 150.12,-214.8 150.12,-178.8 257.88,-178.8 257.88,-214.8"/>
<text text-anchor="middle" x="204" y="-192.6" font-family="Times,serif" font-size="14.00">RoleRepository </text>
</g>
<!-- RoleService  -->
<g id="node2" class="node">
<title>RoleService </title>
<polygon fill="#fb8072" stroke="black" points="131.92,-214.8 44.08,-214.8 44.08,-178.8 131.92,-178.8 131.92,-214.8"/>
<text text-anchor="middle" x="88" y="-192.6" font-family="Times,serif" font-size="14.00">RoleService </text>
</g>
<!-- RoleModule -->
<g id="node3" class="node">
<title>RoleModule</title>
<polygon fill="#8dd3c7" stroke="black" points="149.99,-149.8 146.99,-153.8 125.99,-153.8 122.99,-149.8 64.01,-149.8 64.01,-113.8 149.99,-113.8 149.99,-149.8"/>
<text text-anchor="middle" x="107" y="-127.6" font-family="Times,serif" font-size="14.00">RoleModule</text>
</g>
<!-- RoleModule&#45;&gt;RoleRepository  -->
<g id="edge1" class="edge">
<title>RoleModule&#45;&gt;RoleRepository </title>
<path fill="none" stroke="black" stroke-dasharray="5,2" d="M150.29,-131.8C152.8,-131.8 154.33,-131.8 154.33,-131.8 154.33,-131.8 154.33,-168.69 154.33,-168.69"/>
<polygon fill="black" stroke="black" points="150.83,-168.69 154.33,-178.69 157.83,-168.69 150.83,-168.69"/>
</g>
<!-- RoleModule&#45;&gt;RoleService  -->
<g id="edge2" class="edge">
<title>RoleModule&#45;&gt;RoleService </title>
<path fill="none" stroke="black" stroke-dasharray="5,2" d="M97.98,-149.91C97.98,-149.91 97.98,-168.79 97.98,-168.79"/>
<polygon fill="black" stroke="black" points="94.48,-168.79 97.98,-178.79 101.48,-168.79 94.48,-168.79"/>
</g>
<!-- RoleRepository -->
<g id="node4" class="node">
<title>RoleRepository</title>
<ellipse fill="#fdb462" stroke="black" cx="230" cy="-66.8" rx="71.81" ry="18"/>
<text text-anchor="middle" x="230" y="-62.6" font-family="Times,serif" font-size="14.00">RoleRepository</text>
</g>
<!-- RoleRepository&#45;&gt;RoleModule -->
<g id="edge3" class="edge">
<title>RoleRepository&#45;&gt;RoleModule</title>
<path fill="none" stroke="black" d="M158.01,-66.8C150.26,-66.8 145.11,-66.8 145.11,-66.8 145.11,-66.8 145.11,-103.69 145.11,-103.69"/>
<polygon fill="black" stroke="black" points="141.61,-103.69 145.11,-113.69 148.61,-103.69 141.61,-103.69"/>
</g>
<!-- RoleService -->
<g id="node5" class="node">
<title>RoleService</title>
<ellipse fill="#fdb462" stroke="black" cx="82" cy="-66.8" rx="58.46" ry="18"/>
<text text-anchor="middle" x="82" y="-62.6" font-family="Times,serif" font-size="14.00">RoleService</text>
</g>
<!-- RoleService&#45;&gt;RoleModule -->
<g id="edge4" class="edge">
<title>RoleService&#45;&gt;RoleModule</title>
<path fill="none" stroke="black" d="M102.12,-83.88C102.12,-83.88 102.12,-103.7 102.12,-103.7"/>
<polygon fill="black" stroke="black" points="98.62,-103.7 102.12,-113.7 105.62,-103.7 98.62,-103.7"/>
</g>
</g>
</svg>
