<?xml version="1.0" encoding="UTF-8" standalone="no"?>
<!DOCTYPE svg PUBLIC "-//W3C//DTD SVG 1.1//EN"
 "http://www.w3.org/Graphics/SVG/1.1/DTD/svg11.dtd">
<!-- Generated by graphviz version 5.0.0 (20220707.1540)
 -->
<!-- Title: dependencies Pages: 1 -->
<svg width="5301pt" height="326pt"
 viewBox="0.00 0.00 5301.00 325.80" xmlns="http://www.w3.org/2000/svg" xmlns:xlink="http://www.w3.org/1999/xlink">
<g id="graph0" class="graph" transform="scale(1 1) rotate(0) translate(4 321.8)">
<title>dependencies</title>
<polygon fill="white" stroke="transparent" points="-4,4 -4,-321.8 5297,-321.8 5297,4 -4,4"/>
<text text-anchor="middle" x="2646.5" y="-8.2" font-family="sans-serif" font-size="14.00">dependencies</text>
<g id="clust1" class="cluster">
<title>cluster_AppModule</title>
<polygon fill="none" stroke="black" stroke-dasharray="1,5" points="1300,-108.8 1300,-309.8 2065,-309.8 2065,-108.8 1300,-108.8"/>
</g>
<g id="clust3" class="cluster">
<title>cluster_AppModule_imports</title>
<polygon fill="none" stroke="black" points="1446,-116.8 1446,-244.8 2057,-244.8 2057,-116.8 1446,-116.8"/>
</g>
<g id="clust6" class="cluster">
<title>cluster_AppModule_providers</title>
<polygon fill="none" stroke="black" points="1308,-192.8 1308,-244.8 1438,-244.8 1438,-192.8 1308,-192.8"/>
</g>
<g id="clust7" class="cluster">
<title>cluster_AuthModule</title>
<polygon fill="none" stroke="black" stroke-dasharray="1,5" points="8,-108.8 8,-176.8 1292,-176.8 1292,-108.8 8,-108.8"/>
</g>
<g id="clust9" class="cluster">
<title>cluster_AuthModule_imports</title>
<polygon fill="none" stroke="black" points="1080,-116.8 1080,-168.8 1284,-168.8 1284,-116.8 1080,-116.8"/>
</g>
<g id="clust10" class="cluster">
<title>cluster_AuthModule_exports</title>
<polygon fill="none" stroke="black" points="612,-116.8 612,-168.8 1072,-168.8 1072,-116.8 612,-116.8"/>
</g>
<g id="clust12" class="cluster">
<title>cluster_AuthModule_providers</title>
<polygon fill="none" stroke="black" points="16,-116.8 16,-168.8 604,-168.8 604,-116.8 16,-116.8"/>
</g>
<g id="clust13" class="cluster">
<title>cluster_MailModule</title>
<polygon fill="none" stroke="black" stroke-dasharray="1,5" points="696,-32.8 696,-100.8 1144,-100.8 1144,-32.8 696,-32.8"/>
</g>
<g id="clust16" class="cluster">
<title>cluster_MailModule_exports</title>
<polygon fill="none" stroke="black" points="1032,-40.8 1032,-92.8 1136,-92.8 1136,-40.8 1032,-40.8"/>
</g>
<g id="clust18" class="cluster">
<title>cluster_MailModule_providers</title>
<polygon fill="none" stroke="black" points="704,-40.8 704,-92.8 1024,-92.8 1024,-40.8 704,-40.8"/>
</g>
<g id="clust19" class="cluster">
<title>cluster_MemberModule</title>
<polygon fill="none" stroke="black" stroke-dasharray="1,5" points="2073,-184.8 2073,-252.8 2720,-252.8 2720,-184.8 2073,-184.8"/>
</g>
<g id="clust22" class="cluster">
<title>cluster_MemberModule_exports</title>
<polygon fill="none" stroke="black" points="2441,-192.8 2441,-244.8 2712,-244.8 2712,-192.8 2441,-192.8"/>
</g>
<g id="clust24" class="cluster">
<title>cluster_MemberModule_providers</title>
<polygon fill="none" stroke="black" points="2081,-192.8 2081,-244.8 2433,-244.8 2433,-192.8 2081,-192.8"/>
</g>
<g id="clust25" class="cluster">
<title>cluster_OrganizationModule</title>
<polygon fill="none" stroke="black" stroke-dasharray="1,5" points="2728,-184.8 2728,-252.8 3496,-252.8 3496,-184.8 2728,-184.8"/>
</g>
<g id="clust28" class="cluster">
<title>cluster_OrganizationModule_exports</title>
<polygon fill="none" stroke="black" points="3166,-192.8 3166,-244.8 3488,-244.8 3488,-192.8 3166,-192.8"/>
</g>
<g id="clust30" class="cluster">
<title>cluster_OrganizationModule_providers</title>
<polygon fill="none" stroke="black" points="2736,-192.8 2736,-244.8 3158,-244.8 3158,-192.8 2736,-192.8"/>
</g>
<g id="clust31" class="cluster">
<title>cluster_ResourceModule</title>
<polygon fill="none" stroke="black" stroke-dasharray="1,5" points="3504,-184.8 3504,-252.8 4173,-252.8 4173,-184.8 3504,-184.8"/>
</g>
<g id="clust34" class="cluster">
<title>cluster_ResourceModule_exports</title>
<polygon fill="none" stroke="black" points="3884,-192.8 3884,-244.8 4165,-244.8 4165,-192.8 3884,-192.8"/>
</g>
<g id="clust36" class="cluster">
<title>cluster_ResourceModule_providers</title>
<polygon fill="none" stroke="black" points="3512,-192.8 3512,-244.8 3876,-244.8 3876,-192.8 3512,-192.8"/>
</g>
<g id="clust37" class="cluster">
<title>cluster_RoleModule</title>
<polygon fill="none" stroke="black" stroke-dasharray="1,5" points="4181,-184.8 4181,-252.8 4729,-252.8 4729,-184.8 4181,-184.8"/>
</g>
<g id="clust40" class="cluster">
<title>cluster_RoleModule_exports</title>
<polygon fill="none" stroke="black" points="4491,-192.8 4491,-244.8 4721,-244.8 4721,-192.8 4491,-192.8"/>
</g>
<g id="clust42" class="cluster">
<title>cluster_RoleModule_providers</title>
<polygon fill="none" stroke="black" points="4189,-192.8 4189,-244.8 4483,-244.8 4483,-192.8 4189,-192.8"/>
</g>
<g id="clust43" class="cluster">
<title>cluster_SmsModule</title>
<polygon fill="none" stroke="black" stroke-dasharray="1,5" points="1152,-32.8 1152,-100.8 1676,-100.8 1676,-32.8 1152,-32.8"/>
</g>
<g id="clust46" class="cluster">
<title>cluster_SmsModule_exports</title>
<polygon fill="none" stroke="black" points="1448,-40.8 1448,-92.8 1668,-92.8 1668,-40.8 1448,-40.8"/>
</g>
<g id="clust48" class="cluster">
<title>cluster_SmsModule_providers</title>
<polygon fill="none" stroke="black" points="1160,-40.8 1160,-92.8 1440,-92.8 1440,-40.8 1160,-40.8"/>
</g>
<g id="clust49" class="cluster">
<title>cluster_UserModule</title>
<polygon fill="none" stroke="black" stroke-dasharray="1,5" points="4737,-184.8 4737,-252.8 5285,-252.8 5285,-184.8 4737,-184.8"/>
</g>
<g id="clust52" class="cluster">
<title>cluster_UserModule_exports</title>
<polygon fill="none" stroke="black" points="5047,-192.8 5047,-244.8 5277,-244.8 5277,-192.8 5047,-192.8"/>
</g>
<g id="clust54" class="cluster">
<title>cluster_UserModule_providers</title>
<polygon fill="none" stroke="black" points="4745,-192.8 4745,-244.8 5039,-244.8 5039,-192.8 4745,-192.8"/>
</g>
<!-- AuthModule -->
<g id="node1" class="node">
<title>AuthModule</title>
<polygon fill="#8dd3c7" stroke="black" points="1541.55,-236.8 1538.55,-240.8 1517.55,-240.8 1514.55,-236.8 1454.45,-236.8 1454.45,-200.8 1541.55,-200.8 1541.55,-236.8"/>
<text text-anchor="middle" x="1498" y="-214.6" font-family="Times,serif" font-size="14.00">AuthModule</text>
</g>
<!-- AppModule -->
<g id="node7" class="node">
<title>AppModule</title>
<polygon fill="#8dd3c7" stroke="black" points="1686.66,-301.8 1683.66,-305.8 1662.66,-305.8 1659.66,-301.8 1603.34,-301.8 1603.34,-265.8 1686.66,-265.8 1686.66,-301.8"/>
<text text-anchor="middle" x="1645" y="-279.6" font-family="Times,serif" font-size="14.00">AppModule</text>
</g>
<!-- AuthModule&#45;&gt;AppModule -->
<g id="edge1" class="edge">
<title>AuthModule&#45;&gt;AppModule</title>
<path fill="none" stroke="black" d="M1541.57,-230.8C1580.37,-230.8 1631.06,-230.8 1631.06,-230.8 1631.06,-230.8 1631.06,-255.56 1631.06,-255.56"/>
<polygon fill="black" stroke="black" points="1627.56,-255.56 1631.06,-265.56 1634.56,-255.56 1627.56,-255.56"/>
</g>
<!-- AuthService  -->
<g id="node11" class="node">
<title>AuthService </title>
<polygon fill="#fb8072" stroke="black" points="813.98,-160.8 724.02,-160.8 724.02,-124.8 813.98,-124.8 813.98,-160.8"/>
<text text-anchor="middle" x="769" y="-138.6" font-family="Times,serif" font-size="14.00">AuthService </text>
</g>
<!-- AuthModule&#45;&gt;AuthService  -->
<g id="edge14" class="edge">
<title>AuthModule&#45;&gt;AuthService </title>
<path fill="none" stroke="black" stroke-dasharray="5,2" d="M1501.98,-200.64C1501.98,-195.76 1501.98,-191.8 1501.98,-191.8 1501.98,-191.8 769,-191.8 769,-191.8 769,-191.8 769,-171.05 769,-171.05"/>
<polygon fill="black" stroke="black" points="772.5,-171.05 769,-161.05 765.5,-171.05 772.5,-171.05"/>
</g>
<!-- JwtStrategy  -->
<g id="node12" class="node">
<title>JwtStrategy </title>
<polygon fill="#fb8072" stroke="black" points="705.6,-160.8 620.4,-160.8 620.4,-124.8 705.6,-124.8 705.6,-160.8"/>
<text text-anchor="middle" x="663" y="-138.6" font-family="Times,serif" font-size="14.00">JwtStrategy </text>
</g>
<!-- AuthModule&#45;&gt;JwtStrategy  -->
<g id="edge15" class="edge">
<title>AuthModule&#45;&gt;JwtStrategy </title>
<path fill="none" stroke="black" stroke-dasharray="5,2" d="M1494.02,-200.74C1494.02,-196.31 1494.02,-192.8 1494.02,-192.8 1494.02,-192.8 663,-192.8 663,-192.8 663,-192.8 663,-170.85 663,-170.85"/>
<polygon fill="black" stroke="black" points="666.5,-170.85 663,-160.85 659.5,-170.85 666.5,-170.85"/>
</g>
<!-- LocalStrategy  -->
<g id="node13" class="node">
<title>LocalStrategy </title>
<polygon fill="#fb8072" stroke="black" points="1064.02,-160.8 965.98,-160.8 965.98,-124.8 1064.02,-124.8 1064.02,-160.8"/>
<text text-anchor="middle" x="1015" y="-138.6" font-family="Times,serif" font-size="14.00">LocalStrategy </text>
</g>
<!-- AuthModule&#45;&gt;LocalStrategy  -->
<g id="edge16" class="edge">
<title>AuthModule&#45;&gt;LocalStrategy </title>
<path fill="none" stroke="black" stroke-dasharray="5,2" d="M1517.9,-200.66C1517.9,-194.34 1517.9,-188.8 1517.9,-188.8 1517.9,-188.8 1015,-188.8 1015,-188.8 1015,-188.8 1015,-170.98 1015,-170.98"/>
<polygon fill="black" stroke="black" points="1018.5,-170.98 1015,-160.98 1011.5,-170.98 1018.5,-170.98"/>
</g>
<!-- TokenRepository  -->
<g id="node14" class="node">
<title>TokenRepository </title>
<polygon fill="#fb8072" stroke="black" points="948.21,-160.8 831.79,-160.8 831.79,-124.8 948.21,-124.8 948.21,-160.8"/>
<text text-anchor="middle" x="890" y="-138.6" font-family="Times,serif" font-size="14.00">TokenRepository </text>
</g>
<!-- AuthModule&#45;&gt;TokenRepository  -->
<g id="edge17" class="edge">
<title>AuthModule&#45;&gt;TokenRepository </title>
<path fill="none" stroke="black" stroke-dasharray="5,2" d="M1509.94,-200.6C1509.94,-194.77 1509.94,-189.8 1509.94,-189.8 1509.94,-189.8 890,-189.8 890,-189.8 890,-189.8 890,-170.84 890,-170.84"/>
<polygon fill="black" stroke="black" points="893.5,-170.84 890,-160.84 886.5,-170.84 893.5,-170.84"/>
</g>
<!-- MemberModule -->
<g id="node2" class="node">
<title>MemberModule</title>
<polygon fill="#8dd3c7" stroke="black" points="1560.48,-160.8 1557.48,-164.8 1536.48,-164.8 1533.48,-160.8 1453.52,-160.8 1453.52,-124.8 1560.48,-124.8 1560.48,-160.8"/>
<text text-anchor="middle" x="1507" y="-138.6" font-family="Times,serif" font-size="14.00">MemberModule</text>
</g>
<!-- MemberModule&#45;&gt;AuthModule -->
<g id="edge9" class="edge">
<title>MemberModule&#45;&gt;AuthModule</title>
<path fill="none" stroke="black" d="M1533.82,-160.81C1533.82,-160.81 1533.82,-190.65 1533.82,-190.65"/>
<polygon fill="black" stroke="black" points="1530.32,-190.65 1533.82,-200.65 1537.32,-190.65 1530.32,-190.65"/>
</g>
<!-- MemberModule&#45;&gt;AppModule -->
<g id="edge2" class="edge">
<title>MemberModule&#45;&gt;AppModule</title>
<path fill="none" stroke="black" d="M1554.25,-161.01C1554.25,-197.86 1554.25,-277.8 1554.25,-277.8 1554.25,-277.8 1593.08,-277.8 1593.08,-277.8"/>
<polygon fill="black" stroke="black" points="1593.08,-281.3 1603.08,-277.8 1593.08,-274.3 1593.08,-281.3"/>
</g>
<!-- MemberRepository  -->
<g id="node22" class="node">
<title>MemberRepository </title>
<polygon fill="#fb8072" stroke="black" points="2704.37,-236.8 2575.63,-236.8 2575.63,-200.8 2704.37,-200.8 2704.37,-236.8"/>
<text text-anchor="middle" x="2640" y="-214.6" font-family="Times,serif" font-size="14.00">MemberRepository </text>
</g>
<!-- MemberModule&#45;&gt;MemberRepository  -->
<g id="edge25" class="edge">
<title>MemberModule&#45;&gt;MemberRepository </title>
<path fill="none" stroke="black" stroke-dasharray="5,2" d="M1548.01,-160.93C1548.01,-171.11 1548.01,-181.8 1548.01,-181.8 1548.01,-181.8 2640,-181.8 2640,-181.8 2640,-181.8 2640,-190.73 2640,-190.73"/>
<polygon fill="black" stroke="black" points="2636.5,-190.73 2640,-200.73 2643.5,-190.73 2636.5,-190.73"/>
</g>
<!-- MemberService  -->
<g id="node23" class="node">
<title>MemberService </title>
<polygon fill="#fb8072" stroke="black" points="2557.41,-236.8 2448.59,-236.8 2448.59,-200.8 2557.41,-200.8 2557.41,-236.8"/>
<text text-anchor="middle" x="2503" y="-214.6" font-family="Times,serif" font-size="14.00">MemberService </text>
</g>
<!-- MemberModule&#45;&gt;MemberService  -->
<g id="edge26" class="edge">
<title>MemberModule&#45;&gt;MemberService </title>
<path fill="none" stroke="black" stroke-dasharray="5,2" d="M1544.89,-160.9C1544.89,-171.89 1544.89,-183.8 1544.89,-183.8 1544.89,-183.8 2503,-183.8 2503,-183.8 2503,-183.8 2503,-190.48 2503,-190.48"/>
<polygon fill="black" stroke="black" points="2499.5,-190.48 2503,-200.48 2506.5,-190.48 2499.5,-190.48"/>
</g>
<!-- OrganizationModule -->
<g id="node3" class="node">
<title>OrganizationModule</title>
<polygon fill="#8dd3c7" stroke="black" points="1711.14,-160.8 1708.14,-164.8 1687.14,-164.8 1684.14,-160.8 1578.86,-160.8 1578.86,-124.8 1711.14,-124.8 1711.14,-160.8"/>
<text text-anchor="middle" x="1645" y="-138.6" font-family="Times,serif" font-size="14.00">OrganizationModule</text>
</g>
<!-- OrganizationModule&#45;&gt;AuthModule -->
<g id="edge10" class="edge">
<title>OrganizationModule&#45;&gt;AuthModule</title>
<path fill="none" stroke="black" d="M1590.93,-160.83C1590.93,-181.57 1590.93,-212.8 1590.93,-212.8 1590.93,-212.8 1551.74,-212.8 1551.74,-212.8"/>
<polygon fill="black" stroke="black" points="1551.74,-209.3 1541.74,-212.8 1551.74,-216.3 1551.74,-209.3"/>
</g>
<!-- OrganizationModule&#45;&gt;AppModule -->
<g id="edge3" class="edge">
<title>OrganizationModule&#45;&gt;AppModule</title>
<path fill="none" stroke="black" d="M1658.94,-160.94C1658.94,-160.94 1658.94,-255.73 1658.94,-255.73"/>
<polygon fill="black" stroke="black" points="1655.44,-255.72 1658.94,-265.73 1662.44,-255.73 1655.44,-255.72"/>
</g>
<!-- OrganizationRepository  -->
<g id="node26" class="node">
<title>OrganizationRepository </title>
<polygon fill="#fb8072" stroke="black" points="3480.02,-236.8 3325.98,-236.8 3325.98,-200.8 3480.02,-200.8 3480.02,-236.8"/>
<text text-anchor="middle" x="3403" y="-214.6" font-family="Times,serif" font-size="14.00">OrganizationRepository </text>
</g>
<!-- OrganizationModule&#45;&gt;OrganizationRepository  -->
<g id="edge29" class="edge">
<title>OrganizationModule&#45;&gt;OrganizationRepository </title>
<path fill="none" stroke="black" stroke-dasharray="5,2" d="M1696.63,-160.84C1696.63,-168.55 1696.63,-175.8 1696.63,-175.8 1696.63,-175.8 3403,-175.8 3403,-175.8 3403,-175.8 3403,-190.31 3403,-190.31"/>
<polygon fill="black" stroke="black" points="3399.5,-190.31 3403,-200.31 3406.5,-190.31 3399.5,-190.31"/>
</g>
<!-- OrganizationService  -->
<g id="node27" class="node">
<title>OrganizationService </title>
<polygon fill="#fb8072" stroke="black" points="3308.06,-236.8 3173.94,-236.8 3173.94,-200.8 3308.06,-200.8 3308.06,-236.8"/>
<text text-anchor="middle" x="3241" y="-214.6" font-family="Times,serif" font-size="14.00">OrganizationService </text>
</g>
<!-- OrganizationModule&#45;&gt;OrganizationService  -->
<g id="edge30" class="edge">
<title>OrganizationModule&#45;&gt;OrganizationService </title>
<path fill="none" stroke="black" stroke-dasharray="5,2" d="M1691.73,-160.99C1691.73,-169.08 1691.73,-176.8 1691.73,-176.8 1691.73,-176.8 3241,-176.8 3241,-176.8 3241,-176.8 3241,-190.74 3241,-190.74"/>
<polygon fill="black" stroke="black" points="3237.5,-190.74 3241,-200.74 3244.5,-190.74 3237.5,-190.74"/>
</g>
<!-- ResourceModule -->
<g id="node4" class="node">
<title>ResourceModule</title>
<polygon fill="#8dd3c7" stroke="black" points="1840.64,-160.8 1837.64,-164.8 1816.64,-164.8 1813.64,-160.8 1729.36,-160.8 1729.36,-124.8 1840.64,-124.8 1840.64,-160.8"/>
<text text-anchor="middle" x="1785" y="-138.6" font-family="Times,serif" font-size="14.00">ResourceModule</text>
</g>
<!-- ResourceModule&#45;&gt;AppModule -->
<g id="edge4" class="edge">
<title>ResourceModule&#45;&gt;AppModule</title>
<path fill="none" stroke="black" d="M1822.21,-160.88C1822.21,-197.03 1822.21,-274.8 1822.21,-274.8 1822.21,-274.8 1697,-274.8 1697,-274.8"/>
<polygon fill="black" stroke="black" points="1697,-271.3 1687,-274.8 1697,-278.3 1697,-271.3"/>
</g>
<!-- ResourceRepository  -->
<g id="node30" class="node">
<title>ResourceRepository </title>
<polygon fill="#fb8072" stroke="black" points="4156.53,-236.8 4023.47,-236.8 4023.47,-200.8 4156.53,-200.8 4156.53,-236.8"/>
<text text-anchor="middle" x="4090" y="-214.6" font-family="Times,serif" font-size="14.00">ResourceRepository </text>
</g>
<!-- ResourceModule&#45;&gt;ResourceRepository  -->
<g id="edge33" class="edge">
<title>ResourceModule&#45;&gt;ResourceRepository </title>
<path fill="none" stroke="black" stroke-dasharray="5,2" d="M1766.39,-160.86C1766.39,-165.29 1766.39,-168.8 1766.39,-168.8 1766.39,-168.8 4090,-168.8 4090,-168.8 4090,-168.8 4090,-190.75 4090,-190.75"/>
<polygon fill="black" stroke="black" points="4086.5,-190.75 4090,-200.75 4093.5,-190.75 4086.5,-190.75"/>
</g>
<!-- ResourceService  -->
<g id="node31" class="node">
<title>ResourceService </title>
<polygon fill="#fb8072" stroke="black" points="4005.57,-236.8 3892.43,-236.8 3892.43,-200.8 4005.57,-200.8 4005.57,-236.8"/>
<text text-anchor="middle" x="3949" y="-214.6" font-family="Times,serif" font-size="14.00">ResourceService </text>
</g>
<!-- ResourceModule&#45;&gt;ResourceService  -->
<g id="edge34" class="edge">
<title>ResourceModule&#45;&gt;ResourceService </title>
<path fill="none" stroke="black" stroke-dasharray="5,2" d="M1747.79,-161.01C1747.79,-166.35 1747.79,-170.8 1747.79,-170.8 1747.79,-170.8 3949,-170.8 3949,-170.8 3949,-170.8 3949,-190.65 3949,-190.65"/>
<polygon fill="black" stroke="black" points="3945.5,-190.65 3949,-200.65 3952.5,-190.65 3945.5,-190.65"/>
</g>
<!-- RoleModule -->
<g id="node5" class="node">
<title>RoleModule</title>
<polygon fill="#8dd3c7" stroke="black" points="1944.99,-160.8 1941.99,-164.8 1920.99,-164.8 1917.99,-160.8 1859.01,-160.8 1859.01,-124.8 1944.99,-124.8 1944.99,-160.8"/>
<text text-anchor="middle" x="1902" y="-138.6" font-family="Times,serif" font-size="14.00">RoleModule</text>
</g>
<!-- RoleModule&#45;&gt;AuthModule -->
<g id="edge11" class="edge">
<title>RoleModule&#45;&gt;AuthModule</title>
<path fill="none" stroke="black" d="M1920.43,-160.81C1920.43,-183.29 1920.43,-218.8 1920.43,-218.8 1920.43,-218.8 1551.62,-218.8 1551.62,-218.8"/>
<polygon fill="black" stroke="black" points="1551.62,-215.3 1541.62,-218.8 1551.62,-222.3 1551.62,-215.3"/>
</g>
<!-- RoleModule&#45;&gt;AppModule -->
<g id="edge5" class="edge">
<title>RoleModule&#45;&gt;AppModule</title>
<path fill="none" stroke="black" d="M1932.71,-160.94C1932.71,-199.03 1932.71,-283.8 1932.71,-283.8 1932.71,-283.8 1696.84,-283.8 1696.84,-283.8"/>
<polygon fill="black" stroke="black" points="1696.84,-280.3 1686.84,-283.8 1696.84,-287.3 1696.84,-280.3"/>
</g>
<!-- RoleRepository  -->
<g id="node34" class="node">
<title>RoleRepository </title>
<polygon fill="#fb8072" stroke="black" points="4712.88,-236.8 4605.12,-236.8 4605.12,-200.8 4712.88,-200.8 4712.88,-236.8"/>
<text text-anchor="middle" x="4659" y="-214.6" font-family="Times,serif" font-size="14.00">RoleRepository </text>
</g>
<!-- RoleModule&#45;&gt;RoleRepository  -->
<g id="edge37" class="edge">
<title>RoleModule&#45;&gt;RoleRepository </title>
<path fill="none" stroke="black" stroke-dasharray="5,2" d="M1883.57,-160.95C1883.57,-162.1 1883.57,-162.8 1883.57,-162.8 1883.57,-162.8 4659,-162.8 4659,-162.8 4659,-162.8 4659,-190.77 4659,-190.77"/>
<polygon fill="black" stroke="black" points="4655.5,-190.77 4659,-200.77 4662.5,-190.77 4655.5,-190.77"/>
</g>
<!-- RoleService  -->
<g id="node35" class="node">
<title>RoleService </title>
<polygon fill="#fb8072" stroke="black" points="4586.92,-236.8 4499.08,-236.8 4499.08,-200.8 4586.92,-200.8 4586.92,-236.8"/>
<text text-anchor="middle" x="4543" y="-214.6" font-family="Times,serif" font-size="14.00">RoleService </text>
</g>
<!-- RoleModule&#45;&gt;RoleService  -->
<g id="edge38" class="edge">
<title>RoleModule&#45;&gt;RoleService </title>
<path fill="none" stroke="black" stroke-dasharray="5,2" d="M1871.29,-160.97C1871.29,-163.25 1871.29,-164.8 1871.29,-164.8 1871.29,-164.8 4543,-164.8 4543,-164.8 4543,-164.8 4543,-190.52 4543,-190.52"/>
<polygon fill="black" stroke="black" points="4539.5,-190.52 4543,-200.52 4546.5,-190.52 4539.5,-190.52"/>
</g>
<!-- UserModule -->
<g id="node6" class="node">
<title>UserModule</title>
<polygon fill="#8dd3c7" stroke="black" points="2048.99,-160.8 2045.99,-164.8 2024.99,-164.8 2021.99,-160.8 1963.01,-160.8 1963.01,-124.8 2048.99,-124.8 2048.99,-160.8"/>
<text text-anchor="middle" x="2006" y="-138.6" font-family="Times,serif" font-size="14.00">UserModule</text>
</g>
<!-- UserModule&#45;&gt;AuthModule -->
<g id="edge13" class="edge">
<title>UserModule&#45;&gt;AuthModule</title>
<path fill="none" stroke="black" d="M1991.67,-161C1991.67,-185.16 1991.67,-224.8 1991.67,-224.8 1991.67,-224.8 1551.81,-224.8 1551.81,-224.8"/>
<polygon fill="black" stroke="black" points="1551.81,-221.3 1541.81,-224.8 1551.81,-228.3 1551.81,-221.3"/>
</g>
<!-- UserModule&#45;&gt;AppModule -->
<g id="edge6" class="edge">
<title>UserModule&#45;&gt;AppModule</title>
<path fill="none" stroke="black" d="M2020.33,-160.89C2020.33,-200.79 2020.33,-292.8 2020.33,-292.8 2020.33,-292.8 1696.96,-292.8 1696.96,-292.8"/>
<polygon fill="black" stroke="black" points="1696.96,-289.3 1686.96,-292.8 1696.96,-296.3 1696.96,-289.3"/>
</g>
<!-- UserRepository  -->
<g id="node42" class="node">
<title>UserRepository </title>
<polygon fill="#fb8072" stroke="black" points="5268.88,-236.8 5161.12,-236.8 5161.12,-200.8 5268.88,-200.8 5268.88,-236.8"/>
<text text-anchor="middle" x="5215" y="-214.6" font-family="Times,serif" font-size="14.00">UserRepository </text>
</g>
<!-- UserModule&#45;&gt;UserRepository  -->
<g id="edge45" class="edge">
<title>UserModule&#45;&gt;UserRepository </title>
<path fill="none" stroke="black" stroke-dasharray="5,2" d="M2049.24,-132.8C2431.19,-132.8 5215,-132.8 5215,-132.8 5215,-132.8 5215,-190.56 5215,-190.56"/>
<polygon fill="black" stroke="black" points="5211.5,-190.56 5215,-200.56 5218.5,-190.56 5211.5,-190.56"/>
</g>
<!-- UserService  -->
<g id="node43" class="node">
<title>UserService </title>
<polygon fill="#fb8072" stroke="black" points="5142.91,-236.8 5055.09,-236.8 5055.09,-200.8 5142.91,-200.8 5142.91,-236.8"/>
<text text-anchor="middle" x="5099" y="-214.6" font-family="Times,serif" font-size="14.00">UserService </text>
</g>
<!-- UserModule&#45;&gt;UserService  -->
<g id="edge46" class="edge">
<title>UserModule&#45;&gt;UserService </title>
<path fill="none" stroke="black" stroke-dasharray="5,2" d="M2049.13,-139.8C2422.85,-139.8 5099,-139.8 5099,-139.8 5099,-139.8 5099,-190.48 5099,-190.48"/>
<polygon fill="black" stroke="black" points="5095.5,-190.48 5099,-200.48 5102.5,-190.48 5095.5,-190.48"/>
</g>
<!-- AppService -->
<g id="node8" class="node">
<title>AppService</title>
<ellipse fill="#fdb462" stroke="black" cx="1373" cy="-218.8" rx="56.75" ry="18"/>
<text text-anchor="middle" x="1373" y="-214.6" font-family="Times,serif" font-size="14.00">AppService</text>
</g>
<!-- AppService&#45;&gt;AppModule -->
<g id="edge7" class="edge">
<title>AppService&#45;&gt;AppModule</title>
<path fill="none" stroke="black" d="M1373,-237.08C1373,-258.12 1373,-289.8 1373,-289.8 1373,-289.8 1593.1,-289.8 1593.1,-289.8"/>
<polygon fill="black" stroke="black" points="1593.1,-293.3 1603.1,-289.8 1593.1,-286.3 1593.1,-293.3"/>
</g>
<!-- MailModule -->
<g id="node9" class="node">
<title>MailModule</title>
<polygon fill="#8dd3c7" stroke="black" points="1173.99,-160.8 1170.99,-164.8 1149.99,-164.8 1146.99,-160.8 1088.01,-160.8 1088.01,-124.8 1173.99,-124.8 1173.99,-160.8"/>
<text text-anchor="middle" x="1131" y="-138.6" font-family="Times,serif" font-size="14.00">MailModule</text>
</g>
<!-- MailModule&#45;&gt;AuthModule -->
<g id="edge8" class="edge">
<title>MailModule&#45;&gt;AuthModule</title>
<path fill="none" stroke="black" d="M1131,-160.95C1131,-173.07 1131,-186.8 1131,-186.8 1131,-186.8 1525.86,-186.8 1525.86,-186.8 1525.86,-186.8 1525.86,-190.56 1525.86,-190.56"/>
<polygon fill="black" stroke="black" points="1522.36,-190.56 1525.86,-200.56 1529.36,-190.56 1522.36,-190.56"/>
</g>
<!-- MailService  -->
<g id="node19" class="node">
<title>MailService </title>
<polygon fill="#fb8072" stroke="black" points="1127.92,-84.8 1040.08,-84.8 1040.08,-48.8 1127.92,-48.8 1127.92,-84.8"/>
<text text-anchor="middle" x="1084" y="-62.6" font-family="Times,serif" font-size="14.00">MailService </text>
</g>
<!-- MailModule&#45;&gt;MailService  -->
<g id="edge22" class="edge">
<title>MailModule&#45;&gt;MailService </title>
<path fill="none" stroke="black" stroke-dasharray="5,2" d="M1117.97,-124.79C1117.97,-124.79 1117.97,-94.95 1117.97,-94.95"/>
<polygon fill="black" stroke="black" points="1121.47,-94.95 1117.97,-84.95 1114.47,-94.95 1121.47,-94.95"/>
</g>
<!-- SmsModule -->
<g id="node10" class="node">
<title>SmsModule</title>
<polygon fill="#8dd3c7" stroke="black" points="1275.68,-160.8 1272.68,-164.8 1251.68,-164.8 1248.68,-160.8 1192.32,-160.8 1192.32,-124.8 1275.68,-124.8 1275.68,-160.8"/>
<text text-anchor="middle" x="1234" y="-138.6" font-family="Times,serif" font-size="14.00">SmsModule</text>
</g>
<!-- SmsModule&#45;&gt;AuthModule -->
<g id="edge12" class="edge">
<title>SmsModule&#45;&gt;AuthModule</title>
<path fill="none" stroke="black" d="M1275.93,-151.8C1337.77,-151.8 1446.22,-151.8 1446.22,-151.8 1446.22,-151.8 1446.22,-218.8 1446.22,-218.8 1446.22,-218.8 1447.03,-218.8 1447.03,-218.8"/>
<polygon fill="black" stroke="black" points="1444.31,-222.3 1454.31,-218.8 1444.31,-215.3 1444.31,-222.3"/>
</g>
<!-- SmsService  -->
<g id="node38" class="node">
<title>SmsService </title>
<polygon fill="#fb8072" stroke="black" points="1659.6,-84.8 1574.4,-84.8 1574.4,-48.8 1659.6,-48.8 1659.6,-84.8"/>
<text text-anchor="middle" x="1617" y="-62.6" font-family="Times,serif" font-size="14.00">SmsService </text>
</g>
<!-- SmsModule&#45;&gt;SmsService  -->
<g id="edge41" class="edge">
<title>SmsModule&#45;&gt;SmsService </title>
<path fill="none" stroke="black" stroke-dasharray="5,2" d="M1247.95,-124.65C1247.95,-111.06 1247.95,-94.8 1247.95,-94.8 1247.95,-94.8 1619.24,-94.8 1619.24,-94.8 1619.24,-94.8 1619.24,-93.82 1619.24,-93.82"/>
<polygon fill="black" stroke="black" points="1622.74,-95.01 1619.24,-85.01 1615.74,-95.01 1622.74,-95.01"/>
</g>
<!-- TermiiService  -->
<g id="node39" class="node">
<title>TermiiService </title>
<polygon fill="#fb8072" stroke="black" points="1555.58,-84.8 1456.42,-84.8 1456.42,-48.8 1555.58,-48.8 1555.58,-84.8"/>
<text text-anchor="middle" x="1506" y="-62.6" font-family="Times,serif" font-size="14.00">TermiiService </text>
</g>
<!-- SmsModule&#45;&gt;TermiiService  -->
<g id="edge42" class="edge">
<title>SmsModule&#45;&gt;TermiiService </title>
<path fill="none" stroke="black" stroke-dasharray="5,2" d="M1275.96,-142.8C1335.92,-142.8 1438.93,-142.8 1438.93,-142.8 1438.93,-142.8 1438.93,-66.8 1438.93,-66.8 1438.93,-66.8 1446.2,-66.8 1446.2,-66.8"/>
<polygon fill="black" stroke="black" points="1446.2,-70.3 1456.2,-66.8 1446.2,-63.3 1446.2,-70.3"/>
</g>
<!-- AuthService -->
<g id="node15" class="node">
<title>AuthService</title>
<ellipse fill="#fdb462" stroke="black" cx="215" cy="-142.8" rx="59.11" ry="18"/>
<text text-anchor="middle" x="215" y="-138.6" font-family="Times,serif" font-size="14.00">AuthService</text>
</g>
<!-- AuthService&#45;&gt;AuthModule -->
<g id="edge18" class="edge">
<title>AuthService&#45;&gt;AuthModule</title>
<path fill="none" stroke="black" d="M215,-160.81C215,-176.85 215,-197.8 215,-197.8 215,-197.8 1470.14,-197.8 1470.14,-197.8 1470.14,-197.8 1470.14,-198.09 1470.14,-198.09"/>
<polygon fill="black" stroke="black" points="1466.64,-190.72 1470.14,-200.72 1473.64,-190.72 1466.64,-190.72"/>
</g>
<!-- JwtStrategy -->
<g id="node16" class="node">
<title>JwtStrategy</title>
<ellipse fill="#fdb462" stroke="black" cx="81" cy="-142.8" rx="56.77" ry="18"/>
<text text-anchor="middle" x="81" y="-138.6" font-family="Times,serif" font-size="14.00">JwtStrategy</text>
</g>
<!-- JwtStrategy&#45;&gt;AuthModule -->
<g id="edge19" class="edge">
<title>JwtStrategy&#45;&gt;AuthModule</title>
<path fill="none" stroke="black" d="M81,-160.84C81,-177.53 81,-199.8 81,-199.8 81,-199.8 1462.18,-199.8 1462.18,-199.8 1462.18,-199.8 1462.18,-199.88 1462.18,-199.88"/>
<polygon fill="black" stroke="black" points="1458.68,-190.62 1462.18,-200.62 1465.68,-190.62 1458.68,-190.62"/>
</g>
<!-- LocalStrategy -->
<g id="node17" class="node">
<title>LocalStrategy</title>
<ellipse fill="#fdb462" stroke="black" cx="531" cy="-142.8" rx="65.4" ry="18"/>
<text text-anchor="middle" x="531" y="-138.6" font-family="Times,serif" font-size="14.00">LocalStrategy</text>
</g>
<!-- LocalStrategy&#45;&gt;AuthModule -->
<g id="edge20" class="edge">
<title>LocalStrategy&#45;&gt;AuthModule</title>
<path fill="none" stroke="black" d="M531,-160.99C531,-175.98 531,-194.8 531,-194.8 531,-194.8 1486.06,-194.8 1486.06,-194.8 1486.06,-194.8 1486.06,-195.38 1486.06,-195.38"/>
<polygon fill="black" stroke="black" points="1482.56,-190.61 1486.06,-200.61 1489.56,-190.61 1482.56,-190.61"/>
</g>
<!-- TokenRepository -->
<g id="node18" class="node">
<title>TokenRepository</title>
<ellipse fill="#fdb462" stroke="black" cx="370" cy="-142.8" rx="78.18" ry="18"/>
<text text-anchor="middle" x="370" y="-138.6" font-family="Times,serif" font-size="14.00">TokenRepository</text>
</g>
<!-- TokenRepository&#45;&gt;AuthModule -->
<g id="edge21" class="edge">
<title>TokenRepository&#45;&gt;AuthModule</title>
<path fill="none" stroke="black" d="M370,-161.08C370,-176.75 370,-196.8 370,-196.8 370,-196.8 1478.1,-196.8 1478.1,-196.8 1478.1,-196.8 1478.1,-197.18 1478.1,-197.18"/>
<polygon fill="black" stroke="black" points="1474.6,-190.63 1478.1,-200.63 1481.6,-190.63 1474.6,-190.63"/>
</g>
<!-- ElasticMailService -->
<g id="node20" class="node">
<title>ElasticMailService</title>
<ellipse fill="#fdb462" stroke="black" cx="931" cy="-66.8" rx="84.52" ry="18"/>
<text text-anchor="middle" x="931" y="-62.6" font-family="Times,serif" font-size="14.00">ElasticMailService</text>
</g>
<!-- ElasticMailService&#45;&gt;MailModule -->
<g id="edge23" class="edge">
<title>ElasticMailService&#45;&gt;MailModule</title>
<path fill="none" stroke="black" d="M990.75,-79.67C990.75,-90.69 990.75,-104.8 990.75,-104.8 990.75,-104.8 1107.98,-104.8 1107.98,-104.8 1107.98,-104.8 1107.98,-114.69 1107.98,-114.69"/>
<polygon fill="black" stroke="black" points="1104.48,-114.69 1107.98,-124.69 1111.48,-114.69 1104.48,-114.69"/>
</g>
<!-- MailService -->
<g id="node21" class="node">
<title>MailService</title>
<ellipse fill="#fdb462" stroke="black" cx="770" cy="-66.8" rx="58.46" ry="18"/>
<text text-anchor="middle" x="770" y="-62.6" font-family="Times,serif" font-size="14.00">MailService</text>
</g>
<!-- MailService&#45;&gt;MailModule -->
<g id="edge24" class="edge">
<title>MailService&#45;&gt;MailModule</title>
<path fill="none" stroke="black" d="M820.99,-75.6C820.99,-89.46 820.99,-114.8 820.99,-114.8 820.99,-114.8 1097.99,-114.8 1097.99,-114.8 1097.99,-114.8 1097.99,-115.78 1097.99,-115.78"/>
<polygon fill="black" stroke="black" points="1094.49,-114.59 1097.99,-124.59 1101.49,-114.59 1094.49,-114.59"/>
</g>
<!-- MemberRepository -->
<g id="node24" class="node">
<title>MemberRepository</title>
<ellipse fill="#fdb462" stroke="black" cx="2339" cy="-218.8" rx="86.27" ry="18"/>
<text text-anchor="middle" x="2339" y="-214.6" font-family="Times,serif" font-size="14.00">MemberRepository</text>
</g>
<!-- MemberRepository&#45;&gt;MemberModule -->
<g id="edge27" class="edge">
<title>MemberRepository&#45;&gt;MemberModule</title>
<path fill="none" stroke="black" d="M2339,-200.61C2339,-192.52 2339,-184.8 2339,-184.8 2339,-184.8 1551.13,-184.8 1551.13,-184.8 1551.13,-184.8 1551.13,-170.86 1551.13,-170.86"/>
<polygon fill="black" stroke="black" points="1554.63,-170.86 1551.13,-160.86 1547.63,-170.86 1554.63,-170.86"/>
</g>
<!-- MemberService -->
<g id="node25" class="node">
<title>MemberService</title>
<ellipse fill="#fdb462" stroke="black" cx="2162" cy="-218.8" rx="72.92" ry="18"/>
<text text-anchor="middle" x="2162" y="-214.6" font-family="Times,serif" font-size="14.00">MemberService</text>
</g>
<!-- MemberService&#45;&gt;MemberModule -->
<g id="edge28" class="edge">
<title>MemberService&#45;&gt;MemberModule</title>
<path fill="none" stroke="black" d="M2107.54,-206.8C1958.92,-206.8 1557.37,-206.8 1557.37,-206.8 1557.37,-206.8 1557.37,-170.97 1557.37,-170.97"/>
<polygon fill="black" stroke="black" points="1560.87,-170.97 1557.37,-160.97 1553.87,-170.97 1560.87,-170.97"/>
</g>
<!-- OrganizationRepository -->
<g id="node28" class="node">
<title>OrganizationRepository</title>
<ellipse fill="#fdb462" stroke="black" cx="3046" cy="-218.8" rx="103.66" ry="18"/>
<text text-anchor="middle" x="3046" y="-214.6" font-family="Times,serif" font-size="14.00">OrganizationRepository</text>
</g>
<!-- OrganizationRepository&#45;&gt;OrganizationModule -->
<g id="edge31" class="edge">
<title>OrganizationRepository&#45;&gt;OrganizationModule</title>
<path fill="none" stroke="black" d="M3046,-200.67C3046,-190.09 3046,-178.8 3046,-178.8 3046,-178.8 1706.42,-178.8 1706.42,-178.8 1706.42,-178.8 1706.42,-171.22 1706.42,-171.22"/>
<polygon fill="black" stroke="black" points="1709.92,-171.22 1706.42,-161.22 1702.92,-171.22 1709.92,-171.22"/>
</g>
<!-- OrganizationService -->
<g id="node29" class="node">
<title>OrganizationService</title>
<ellipse fill="#fdb462" stroke="black" cx="2834" cy="-218.8" rx="90.31" ry="18"/>
<text text-anchor="middle" x="2834" y="-214.6" font-family="Times,serif" font-size="14.00">OrganizationService</text>
</g>
<!-- OrganizationService&#45;&gt;OrganizationModule -->
<g id="edge32" class="edge">
<title>OrganizationService&#45;&gt;OrganizationModule</title>
<path fill="none" stroke="black" d="M2834,-200.69C2834,-190.9 2834,-180.8 2834,-180.8 2834,-180.8 1701.52,-180.8 1701.52,-180.8 1701.52,-180.8 1701.52,-170.91 1701.52,-170.91"/>
<polygon fill="black" stroke="black" points="1705.02,-170.91 1701.52,-160.91 1698.02,-170.91 1705.02,-170.91"/>
</g>
<!-- ResourceRepository -->
<g id="node32" class="node">
<title>ResourceRepository</title>
<ellipse fill="#fdb462" stroke="black" cx="3779" cy="-218.8" rx="89.2" ry="18"/>
<text text-anchor="middle" x="3779" y="-214.6" font-family="Times,serif" font-size="14.00">ResourceRepository</text>
</g>
<!-- ResourceRepository&#45;&gt;ResourceModule -->
<g id="edge35" class="edge">
<title>ResourceRepository&#45;&gt;ResourceModule</title>
<path fill="none" stroke="black" d="M3779,-200.62C3779,-187.76 3779,-172.8 3779,-172.8 3779,-172.8 1803.61,-172.8 1803.61,-172.8 1803.61,-172.8 1803.61,-170.94 1803.61,-170.94"/>
<polygon fill="black" stroke="black" points="1807.11,-170.94 1803.61,-160.94 1800.11,-170.94 1807.11,-170.94"/>
</g>
<!-- ResourceService -->
<g id="node33" class="node">
<title>ResourceService</title>
<ellipse fill="#fdb462" stroke="black" cx="3596" cy="-218.8" rx="75.85" ry="18"/>
<text text-anchor="middle" x="3596" y="-214.6" font-family="Times,serif" font-size="14.00">ResourceService</text>
</g>
<!-- ResourceService&#45;&gt;ResourceModule -->
<g id="edge36" class="edge">
<title>ResourceService&#45;&gt;ResourceModule</title>
<path fill="none" stroke="black" d="M3596,-200.76C3596,-188.24 3596,-173.8 3596,-173.8 3596,-173.8 1785,-173.8 1785,-173.8 1785,-173.8 1785,-170.83 1785,-170.83"/>
<polygon fill="black" stroke="black" points="1788.5,-170.83 1785,-160.83 1781.5,-170.83 1788.5,-170.83"/>
</g>
<!-- RoleRepository -->
<g id="node36" class="node">
<title>RoleRepository</title>
<ellipse fill="#fdb462" stroke="black" cx="4403" cy="-218.8" rx="71.81" ry="18"/>
<text text-anchor="middle" x="4403" y="-214.6" font-family="Times,serif" font-size="14.00">RoleRepository</text>
</g>
<!-- RoleRepository&#45;&gt;RoleModule -->
<g id="edge39" class="edge">
<title>RoleRepository&#45;&gt;RoleModule</title>
<path fill="none" stroke="black" d="M4403,-200.56C4403,-185.23 4403,-165.8 4403,-165.8 4403,-165.8 1908.14,-165.8 1908.14,-165.8 1908.14,-165.8 1908.14,-165.31 1908.14,-165.31"/>
<polygon fill="black" stroke="black" points="1911.64,-170.92 1908.14,-160.92 1904.64,-170.92 1911.64,-170.92"/>
</g>
<!-- RoleService -->
<g id="node37" class="node">
<title>RoleService</title>
<ellipse fill="#fdb462" stroke="black" cx="4255" cy="-218.8" rx="58.46" ry="18"/>
<text text-anchor="middle" x="4255" y="-214.6" font-family="Times,serif" font-size="14.00">RoleService</text>
</g>
<!-- RoleService&#45;&gt;RoleModule -->
<g id="edge40" class="edge">
<title>RoleService&#45;&gt;RoleModule</title>
<path fill="none" stroke="black" d="M4255,-200.68C4255,-186.02 4255,-167.8 4255,-167.8 4255,-167.8 1895.86,-167.8 1895.86,-167.8 1895.86,-167.8 1895.86,-167.12 1895.86,-167.12"/>
<polygon fill="black" stroke="black" points="1899.36,-170.97 1895.86,-160.97 1892.36,-170.97 1899.36,-170.97"/>
</g>
<!-- SmsService -->
<g id="node40" class="node">
<title>SmsService</title>
<ellipse fill="#fdb462" stroke="black" cx="1375" cy="-66.8" rx="56.77" ry="18"/>
<text text-anchor="middle" x="1375" y="-62.6" font-family="Times,serif" font-size="14.00">SmsService</text>
</g>
<!-- SmsService&#45;&gt;SmsModule -->
<g id="edge43" class="edge">
<title>SmsService&#45;&gt;SmsModule</title>
<path fill="none" stroke="black" d="M1374,-85.11C1374,-104.95 1374,-133.8 1374,-133.8 1374,-133.8 1286,-133.8 1286,-133.8"/>
<polygon fill="black" stroke="black" points="1286,-130.3 1276,-133.8 1286,-137.3 1286,-130.3"/>
</g>
<!-- TermiiService -->
<g id="node41" class="node">
<title>TermiiService</title>
<ellipse fill="#fdb462" stroke="black" cx="1234" cy="-66.8" rx="66.04" ry="18"/>
<text text-anchor="middle" x="1234" y="-62.6" font-family="Times,serif" font-size="14.00">TermiiService</text>
</g>
<!-- TermiiService&#45;&gt;SmsModule -->
<g id="edge44" class="edge">
<title>TermiiService&#45;&gt;SmsModule</title>
<path fill="none" stroke="black" d="M1220.05,-84.43C1220.05,-84.43 1220.05,-114.74 1220.05,-114.74"/>
<polygon fill="black" stroke="black" points="1216.55,-114.74 1220.05,-124.74 1223.55,-114.74 1216.55,-114.74"/>
</g>
<!-- UserRepository -->
<g id="node44" class="node">
<title>UserRepository</title>
<ellipse fill="#fdb462" stroke="black" cx="4959" cy="-218.8" rx="71.8" ry="18"/>
<text text-anchor="middle" x="4959" y="-214.6" font-family="Times,serif" font-size="14.00">UserRepository</text>
</g>
<!-- UserRepository&#45;&gt;UserModule -->
<g id="edge47" class="edge">
<title>UserRepository&#45;&gt;UserModule</title>
<path fill="none" stroke="black" d="M4959,-200.63C4959,-179.3 4959,-146.8 4959,-146.8 4959,-146.8 2059.17,-146.8 2059.17,-146.8"/>
<polygon fill="black" stroke="black" points="2059.17,-143.3 2049.17,-146.8 2059.17,-150.3 2059.17,-143.3"/>
</g>
<!-- UserService -->
<g id="node45" class="node">
<title>UserService</title>
<ellipse fill="#fdb462" stroke="black" cx="4811" cy="-218.8" rx="58.46" ry="18"/>
<text text-anchor="middle" x="4811" y="-214.6" font-family="Times,serif" font-size="14.00">UserService</text>
</g>
<!-- UserService&#45;&gt;UserModule -->
<g id="edge48" class="edge">
<title>UserService&#45;&gt;UserModule</title>
<path fill="none" stroke="black" d="M4811,-200.69C4811,-181.46 4811,-153.8 4811,-153.8 4811,-153.8 2059.22,-153.8 2059.22,-153.8"/>
<polygon fill="black" stroke="black" points="2059.22,-150.3 2049.22,-153.8 2059.22,-157.3 2059.22,-150.3"/>
</g>
</g>
</svg>
